<svg width="60" height="60" viewBox="0 0 60 60" fill="none" xmlns="http://www.w3.org/2000/svg">
<path d="M31.9997 33.9997C35.8832 33.9997 39.1204 31.2325 39.8472 27.5624C39.9472 27.057 39.9997 26.5345 39.9997 25.9997C39.9997 21.9855 37.0432 18.6618 33.1889 18.0875C32.8009 18.0296 32.4038 17.9997 31.9997 17.9997C30.1142 17.9997 28.3811 18.6519 27.0137 19.7431C26.5378 20.1229 26.1061 20.5558 25.7278 21.033C25.2935 21.5807 24.9294 22.1866 24.6491 22.8371C24.2312 23.8071 23.9997 24.8764 23.9997 25.9997C23.9997 30.418 27.5814 33.9997 31.9997 33.9997Z" fill="#F9B54C"/>
<path d="M31.9997 17.9997C31.9829 17.9997 31.9666 18.0011 31.9498 18.0011V33.9982C31.9666 33.9984 31.9829 33.9997 31.9997 33.9997C35.8832 33.9997 39.1204 31.2325 39.8472 27.5624C39.9472 27.057 39.9997 26.5345 39.9997 25.9997C39.9997 21.9855 37.0432 18.6618 33.1889 18.0875C32.8009 18.0296 32.4038 17.9997 31.9997 17.9997Z" fill="#F4A200"/>
<path d="M32.8981 12.0001L31.9503 12H31.1013V15.9999L31.9503 15.9998H32.8981V12.0001Z" fill="#F2D453"/>
<path d="M32.8981 12.0001L31.9503 12V15.9998H32.8981V12.0001Z" fill="#F4A200"/>
<path d="M32.8981 36.0002H31.1013V40H32.8981V36.0002Z" fill="#F2D453"/>
<path d="M32.8981 36.0002H31.9503V40H32.8981V36.0002Z" fill="#F4A200"/>
<path d="M46 25.1014H42.0002V26.8981H46V25.1014Z" fill="#F4A200"/>
<path d="M21.9999 25.1014H18L18.0001 26.8981L21.0809 26.8981H21.9998L21.9999 25.1014Z" fill="#F2D453"/>
<path d="M38.4363 18.2932L39.7068 19.5637L42.5342 16.7355L41.2646 15.4649L38.8139 17.9156L38.4363 18.2932Z" fill="#F4A200"/>
<path d="M21.4649 35.2634L22.7358 36.5341L25.5637 33.7056L24.2932 32.4351L21.4649 35.2634Z" fill="#F2D453"/>
<path d="M21.4648 16.7349L24.2937 19.5639L25.5641 18.2935L22.7353 15.4644L21.4648 16.7349Z" fill="#F2D453"/>
<path d="M38.4352 33.7057L41.2634 36.534L42.5339 35.2635L39.7057 32.4352L38.4352 33.7057Z" fill="#F4A200"/>
<path fill-rule="evenodd" clip-rule="evenodd" d="M29.651 59.9954C29.6908 59.9959 29.7305 59.9966 29.7702 59.9972C29.748 59.9971 29.7258 59.9967 29.7036 59.9963L29.651 59.9954Z" fill="#CFDBE6"/>
<path d="M38.1998 42.4567C42.357 42.4567 45.728 39.0913 45.7372 34.936C45.7372 34.9304 45.7372 34.9248 45.7372 34.9192C45.7372 31.3222 43.2177 28.3138 39.8472 27.5624C39.3169 27.4442 38.7657 27.3818 38.1998 27.3818C37.2509 27.3818 36.3438 27.5588 35.5076 27.8788C34.9875 25.5285 33.3714 23.5901 31.2225 22.629C30.2843 22.2093 29.2445 21.976 28.15 21.976C26.886 21.976 25.695 22.2871 24.6491 22.8371C23.6054 23.3858 22.7062 24.1724 22.0233 25.1247C21.6347 25.6666 21.3161 26.2622 21.0809 26.8981C20.9793 27.1726 20.8933 27.4547 20.8238 27.7432C20.2518 27.7707 19.705 27.8939 19.199 28.097C17.6768 28.7082 16.5234 30.0432 16.1634 31.6761C15.9741 31.6561 15.7822 31.6452 15.5876 31.6452C12.6022 31.6452 10.182 34.0653 10.182 37.0508C10.182 38.5437 10.787 39.8954 11.7654 40.8737C11.7757 40.884 11.7861 40.8944 11.7966 40.9046C12.7722 41.8644 14.1109 42.4564 15.5876 42.4564L28.047 42.4566L38.1998 42.4567Z" fill="#31BAFD"/>
<path d="M38.1998 27.3818C37.2509 27.3818 36.3438 27.5588 35.5076 27.8788C34.9875 25.5285 33.3714 23.5901 31.2225 22.629C30.2843 22.2093 29.2445 21.976 28.15 21.976C28.1154 21.976 28.0813 21.978 28.047 21.9783V42.4566L38.1998 42.4567C42.357 42.4567 45.728 39.0913 45.7372 34.936C45.7372 34.9304 45.7372 34.9248 45.7372 34.9192C45.7372 31.3222 43.2177 28.3138 39.8472 27.5624C39.3169 27.4442 38.7657 27.3818 38.1998 27.3818Z" fill="#2B9ED8"/>
<path fill-rule="evenodd" clip-rule="evenodd" d="M39.8472 27.5624C39.9472 27.057 39.9997 26.5345 39.9997 25.9997C39.9997 21.9855 37.0432 18.6618 33.1889 18.0875L31.1013 15.9999L31.9503 15.9998H32.8981V12.0001L38.8139 17.9156L38.4363 18.2932L39.7068 19.5637L42.5342 16.7355L59.9998 29.9999C59.9998 46.5684 46.5684 59.9998 29.9999 59.9998C29.9571 59.9998 29.9145 59.9994 29.8719 59.9988C29.838 59.9984 29.8041 59.9978 29.7702 59.9972C29.7305 59.9966 29.6908 59.9959 29.651 59.9954L15.5876 42.4564L28.047 42.4566L38.1998 42.4567C42.357 42.4567 45.728 39.0913 45.7372 34.936V34.9192C45.7372 31.3222 43.2177 28.3138 39.8472 27.5624ZM46 25.1014H42.0002V26.8981H46V25.1014Z" fill="#C1A996"/>
<path fill-rule="evenodd" clip-rule="evenodd" d="M33.1889 18.0875C32.8009 18.0296 32.4038 17.9997 31.9997 17.9997C30.1142 17.9997 28.3811 18.6519 27.0137 19.7431L25.5641 18.2935L22.7353 15.4644L21.4648 16.7349L24.2937 19.5639L25.7278 21.033C25.2935 21.5807 24.9294 22.1866 24.6491 22.8371C23.6054 23.3858 22.7062 24.1724 22.0233 25.1247L21.9999 25.1014H18L18.0001 26.8981L19.199 28.097C17.6768 28.7082 16.5234 30.0432 16.1634 31.6761C15.9741 31.6561 15.7822 31.6452 15.5876 31.6452C12.6022 31.6452 10.182 34.0653 10.182 37.0508C10.182 38.5437 10.787 39.8954 11.7654 40.8737L11.7966 40.9046C12.7722 41.8644 14.1109 42.4564 15.5876 42.4564L29.651 59.9954C13.2433 59.8085 0 46.4519 0 29.9999C0 13.4314 13.4314 0 29.9999 0C46.3761 0 59.6859 13.1298 59.9927 29.4326C59.9963 29.6241 59.9998 29.8076 59.9998 29.9999L42.5342 16.7355L41.2646 15.4649L38.8139 17.9156L32.8981 12.0001L31.9503 12H31.1013V15.9999L33.1889 18.0875Z" fill="#E2C3AB"/>
<path fill-rule="evenodd" clip-rule="evenodd" d="M18.0001 26.8981L21.0809 26.8981C20.9793 27.1726 20.8933 27.4547 20.8238 27.7432C20.2518 27.7707 19.705 27.8939 19.199 28.097L18.0001 26.8981Z" fill="#C1A996"/>
<path fill-rule="evenodd" clip-rule="evenodd" d="M27.0137 19.7431C26.5378 20.1229 26.1061 20.5558 25.7278 21.033L24.2937 19.5639L25.5641 18.2935L27.0137 19.7431Z" fill="#C1A996"/>
</svg>
