<svg width="60" height="60" viewBox="0 0 60 60" fill="none" xmlns="http://www.w3.org/2000/svg">
<path fill-rule="evenodd" clip-rule="evenodd" d="M15.4054 41.4564L27.8647 41.4566L38.0175 41.4567C42.1747 41.4567 45.5458 38.0914 45.5549 33.936L46.2375 33.936C47.7184 33.936 49.0206 33.1707 49.77 32.014C50.1962 31.3562 50.4437 30.5719 50.4437 29.7298C50.4437 27.4068 48.5605 25.5236 46.2375 25.5236C46.086 25.5236 45.9367 25.5321 45.7894 25.5477C45.6293 24.8215 45.2688 24.1694 44.767 23.6565C44.0991 22.9737 43.1818 22.5365 42.1631 22.4874C41.8918 21.3608 41.2955 20.3608 40.4789 19.5923C39.4298 18.605 38.0169 18 36.4623 18C34.9231 18 33.5229 18.5931 32.477 19.5632C31.86 20.1354 31.3664 20.8388 31.0403 21.629C30.102 21.2093 29.0622 20.976 27.9677 20.976C27.4348 20.976 26.9149 21.0313 26.4134 21.1365C24.3012 21.5795 22.5148 22.9072 21.4586 24.7141C21.0934 25.3388 20.8155 26.0207 20.6415 26.7432C18.7493 26.8342 17.1326 27.9721 16.3559 29.5901C16.1916 29.9324 16.0649 30.2962 15.9811 30.6761C15.7918 30.6561 15.5999 30.6452 15.4054 30.6452C15.0917 30.6452 14.7843 30.6719 14.4853 30.7232C11.9381 31.16 9.99976 33.379 9.99976 36.0508C9.99976 37.5437 10.6047 38.8954 11.5831 39.8737C12.5613 40.8517 13.9128 41.4564 15.4054 41.4564ZM13.2853 26.2377L9.99983 26.2377L9.99976 24.7618H13.2854L13.2853 26.2377ZM16.2131 19.1697L15.1696 20.2132L12.8458 17.8894L13.8894 16.8457L16.2131 19.1697ZM20.7616 17.2857L22.2375 17.2856L22.2375 14.0001L21.4589 14H20.7616V17.2857ZM26.7867 19.1694L27.0969 18.8592L29.1099 16.8462L30.1529 17.8899L27.8303 20.213L26.7867 19.1694ZM27.8647 33.8852C28.1191 33.9189 28.3786 33.9363 28.6422 33.9363L36.4169 33.9362V26.5532C36.0419 26.6347 35.6773 26.7441 35.3253 26.8788C35.1032 25.8749 34.6811 24.9462 34.103 24.1367L27.8647 28.5829V33.8852Z" fill="#CFDBE6"/>
<path d="M22.2375 14.0001L21.4589 14H20.7616V17.2857L22.2375 17.2856L22.2375 14.0001Z" fill="#F2D453"/>
<path d="M22.2375 14.0001L21.4589 14V17.2856H22.2375L22.2375 14.0001Z" fill="#F4A200"/>
<path d="M22.2375 33.7144H20.7616V37H22.2375V33.7144Z" fill="#F2D453"/>
<path d="M22.2375 33.7144H21.4589V37H22.2375V33.7144Z" fill="#F4A200"/>
<path d="M13.2854 24.7618H9.99976L9.99983 26.2377L13.2853 26.2377L13.2854 24.7618Z" fill="#F2D453"/>
<path d="M26.7867 19.1694L27.8303 20.213L30.1529 17.8899L29.1099 16.8462L27.0969 18.8592L26.7867 19.1694Z" fill="#F4A200"/>
<path d="M12.8459 33.1092L13.8898 34.153L16.2128 31.8296L15.1692 30.786L12.8459 33.1092Z" fill="#F2D453"/>
<path d="M12.8458 17.8894L15.1696 20.2132L16.2131 19.1697L13.8894 16.8457L12.8458 17.8894Z" fill="#F2D453"/>
<path d="M22.2375 14.0001L21.4589 14H20.7616V17.2857L22.2375 17.2856L22.2375 14.0001Z" fill="#F2D453"/>
<path d="M22.2375 14.0001L21.4589 14V17.2856H22.2375L22.2375 14.0001Z" fill="#F4A200"/>
<path d="M22.2375 33.7144H20.7616V37H22.2375V33.7144Z" fill="#F2D453"/>
<path d="M22.2375 33.7144H21.4589V37H22.2375V33.7144Z" fill="#F4A200"/>
<path d="M13.2854 24.7618H9.99976L9.99983 26.2377L13.2853 26.2377L13.2854 24.7618Z" fill="#F2D453"/>
<path d="M26.7867 19.1694L27.8303 20.213L30.1529 17.8899L29.1099 16.8462L27.0969 18.8592L26.7867 19.1694Z" fill="#F4A200"/>
<path d="M12.8459 33.1092L13.8898 34.153L16.2128 31.8296L15.1692 30.786L12.8459 33.1092Z" fill="#F2D453"/>
<path d="M12.8458 17.8894L15.1696 20.2132L16.2131 19.1697L13.8894 16.8457L12.8458 17.8894Z" fill="#F2D453"/>
<path fill-rule="evenodd" clip-rule="evenodd" d="M36.4169 33.9362L45.5549 33.936L46.2375 33.936C47.7184 33.936 49.0206 33.1707 49.77 32.014C50.1962 31.3562 50.4437 30.5719 50.4437 29.7298C50.4437 27.4068 48.5605 25.5236 46.2375 25.5236C46.086 25.5236 45.9367 25.5321 45.7894 25.5477C45.6293 24.8215 45.2688 24.1694 44.767 23.6565C44.0991 22.9737 43.1818 22.5365 42.1631 22.4874C41.8918 21.3608 41.2955 20.3608 40.4789 19.5923C39.4298 18.605 38.0169 18 36.4623 18C34.9231 18 33.5229 18.5931 32.477 19.5632C31.86 20.1354 31.3664 20.8388 31.0403 21.629C30.9128 21.938 30.8108 22.2603 30.7372 22.5931C30.0864 22.3441 29.3806 22.2063 28.6422 22.2063C25.4031 22.2063 22.7772 24.8321 22.7772 28.0713C22.7772 31.0469 24.9931 33.5048 27.8647 33.8852V28.5829L34.103 24.1367C34.6811 24.9462 35.1032 25.8749 35.3253 26.8788C35.6773 26.7441 36.0419 26.6347 36.4169 26.5532V33.9362Z" fill="white"/>
<path d="M46.2375 25.5236C46.086 25.5236 45.9367 25.5321 45.7894 25.5477C45.6293 24.8215 45.2688 24.1694 44.767 23.6565C44.0991 22.9737 43.1818 22.5365 42.1631 22.4874C41.8918 21.3608 41.2955 20.3608 40.4789 19.5923C39.4298 18.605 38.0169 18 36.4623 18C36.447 18 36.432 18.0007 36.4169 18.0009V26.5532V33.9362L45.5549 33.936L46.2375 33.936C47.7184 33.936 49.0206 33.1707 49.77 32.014C50.1962 31.3562 50.4437 30.5719 50.4437 29.7298C50.4437 27.4068 48.5605 25.5236 46.2375 25.5236Z" fill="#E6F3FF"/>
<path fill-rule="evenodd" clip-rule="evenodd" d="M45.5549 33.936C45.5458 38.0914 42.1747 41.4567 38.0175 41.4567L27.8647 41.4566L15.4054 41.4564C13.9128 41.4564 12.5613 40.8517 11.5831 39.8737C10.6047 38.8954 9.99976 37.5437 9.99976 36.0508C9.99976 33.379 11.9381 31.16 14.4853 30.7232C14.7843 30.6719 15.0917 30.6452 15.4054 30.6452C15.5999 30.6452 15.7918 30.6561 15.9811 30.6761C16.0649 30.2962 16.1916 29.9324 16.3559 29.5901C17.1326 27.9721 18.7493 26.8342 20.6415 26.7432C20.8155 26.0207 21.0934 25.3388 21.4586 24.7141C22.5148 22.9072 24.3012 21.5795 26.4134 21.1365C26.9149 21.0313 27.4348 20.976 27.9677 20.976C29.0622 20.976 30.102 21.2093 31.0403 21.629C32.2713 22.1796 33.3275 23.0509 34.103 24.1367L27.8647 28.5829V33.8852C28.1191 33.9189 28.3786 33.9363 28.6422 33.9363L36.4169 33.9362V26.5532C36.9327 26.4411 37.4681 26.3818 38.0175 26.3818C42.1804 26.3818 45.5549 29.7563 45.5549 33.9192L45.5549 33.936Z" fill="#31BAFD"/>
<path fill-rule="evenodd" clip-rule="evenodd" d="M36.4169 26.5532C36.9327 26.4411 37.4681 26.3818 38.0175 26.3818C42.1804 26.3818 45.5549 29.7563 45.5549 33.9192L45.5549 33.936C45.5458 38.0914 42.1747 41.4567 38.0175 41.4567L27.8647 41.4566V33.8852C28.1191 33.9189 28.3786 33.9363 28.6422 33.9363L36.4169 33.9362V26.5532ZM34.103 24.1367C33.3275 23.0509 32.2713 22.1796 31.0403 21.629C30.102 21.2093 29.0622 20.976 27.9677 20.976C27.9487 20.976 27.9299 20.9766 27.9111 20.9772C27.8956 20.9777 27.8802 20.9782 27.8647 20.9783V28.5829L34.103 24.1367Z" fill="#2B9ED8"/>
<path d="M15.4054 41.4564L29.9999 59.9998C43.616 59.9998 55.1134 50.9287 58.7785 38.5L49.77 32.014C49.0206 33.1707 47.7184 33.936 46.2375 33.936L45.5549 33.936C45.5458 38.0914 42.1747 41.4567 38.0175 41.4567L27.8647 41.4566L15.4054 41.4564Z" fill="#C1A996"/>
<path d="M22.4763 19.0004C24.0345 19.2326 25.4141 20.0118 26.4134 21.1365C26.9149 21.0313 27.4348 20.976 27.9677 20.976C29.0622 20.976 30.102 21.2093 31.0403 21.629C31.3664 20.8388 31.86 20.1354 32.477 19.5632L30.1529 17.8899L27.8303 20.213L26.7867 19.1694L27.0969 18.8592L22.2375 14.0001L22.2375 17.2856L20.7616 17.2857L22.4763 19.0004Z" fill="#C1A996"/>
<path d="M15.0002 26.4765L13.2854 24.7618L13.2853 26.2377L9.99983 26.2377L14.4853 30.7232C14.7843 30.6719 15.0917 30.6452 15.4054 30.6452C15.5999 30.6452 15.7918 30.6561 15.9811 30.6761C16.0649 30.2962 16.1916 29.9324 16.3559 29.5901C15.654 28.7086 15.1739 27.6425 15.0002 26.4765Z" fill="#C1A996"/>
<path d="M16.3476 21.4199C16.6584 21.028 17.0129 20.6724 17.4039 20.3604L16.2131 19.1697L15.1696 20.2132L16.3476 21.4199Z" fill="#C1A996"/>
<path fill-rule="evenodd" clip-rule="evenodd" d="M11.5831 39.8737C12.5613 40.8517 13.9128 41.4564 15.4054 41.4564L29.9999 59.9998C13.4314 59.9998 0 46.5684 0 29.9999C0 13.4314 13.4314 0 29.9999 0C46.5684 0 59.9998 13.4314 59.9998 29.9999C59.9998 32.9523 59.5733 35.8051 58.7785 38.5L49.77 32.014C50.1962 31.3562 50.4437 30.5719 50.4437 29.7298C50.4437 27.4068 48.5605 25.5236 46.2375 25.5236C46.086 25.5236 45.9367 25.5321 45.7894 25.5477C45.6293 24.8215 45.2688 24.1694 44.767 23.6565C44.0991 22.9737 43.1818 22.5365 42.1631 22.4874C41.8918 21.3608 41.2955 20.3608 40.4789 19.5923C39.4298 18.605 38.0169 18 36.4623 18C34.9231 18 33.5229 18.5931 32.477 19.5632L30.1529 17.8899L29.1099 16.8462L27.0969 18.8592L22.2375 14.0001L21.4589 14H20.7616V17.2857L22.4763 19.0004C22.1576 18.9529 21.8314 18.9283 21.4995 18.9283C21.4924 18.9283 21.4853 18.9286 21.4782 18.9289C21.4747 18.9291 21.4621 18.9294 21.4586 18.9295C21.4555 18.9296 21.4616 18.9295 21.4586 18.9295C19.9257 18.9389 18.5172 19.472 17.4039 20.3604L16.2131 19.1697L13.8894 16.8457L12.8458 17.8894L15.1696 20.2132L16.3476 21.4199C15.4588 22.5407 14.9281 23.9583 14.9281 25.4998C14.9281 25.8317 14.9527 26.1578 15.0002 26.4765L13.2854 24.7618H9.99976L9.99983 26.2377L14.4853 30.7232C11.9381 31.16 9.99976 33.379 9.99976 36.0508C9.99976 37.5437 10.6047 38.8954 11.5831 39.8737Z" fill="#E2C3AB"/>
<path fill-rule="evenodd" clip-rule="evenodd" d="M20.6415 26.7432C18.7493 26.8342 17.1326 27.9721 16.3559 29.5901C15.654 28.7086 15.1739 27.6425 15.0002 26.4765C14.9527 26.1578 14.9281 25.8317 14.9281 25.4998C14.9281 23.9583 15.4588 22.5407 16.3476 21.4199C16.6584 21.028 17.0129 20.6724 17.4039 20.3604C18.5172 19.472 19.9257 18.9389 21.4586 18.9295V24.7141C21.0934 25.3388 20.8155 26.0207 20.6415 26.7432Z" fill="#F2D453"/>
<path fill-rule="evenodd" clip-rule="evenodd" d="M26.4134 21.1365C24.3012 21.5795 22.5148 22.9072 21.4586 24.7141V18.9295C21.4651 18.9295 21.4717 18.9292 21.4782 18.9289C21.4853 18.9286 21.4924 18.9283 21.4995 18.9283C21.8314 18.9283 22.1576 18.9529 22.4763 19.0004C24.0345 19.2326 25.4141 20.0118 26.4134 21.1365Z" fill="#F4A200"/>
<path d="M28.6422 33.9363C28.3786 33.9363 28.1191 33.9189 27.8647 33.8852V28.5829L34.103 24.1367C34.6811 24.9462 35.1032 25.8749 35.3253 26.8788C35.6773 26.7441 36.0419 26.6347 36.4169 26.5532V33.9362L28.6422 33.9363Z" fill="#2B9ED8"/>
</svg>
