<svg width="30" height="24" viewBox="0 0 30 24" fill="none" xmlns="http://www.w3.org/2000/svg">
<path d="M26 0H4C1.79086 0 0 1.79086 0 4V20C0 22.2091 1.79086 24 4 24H26C28.2091 24 30 22.2091 30 20V4C30 1.79086 28.2091 0 26 0Z" fill="#112F95"/>
<path d="M26 0H4C1.79086 0 0 1.79086 0 4V20C0 22.2091 1.79086 24 4 24H26C28.2091 24 30 22.2091 30 20V4C30 1.79086 28.2091 0 26 0ZM29 20C29 21.654 27.654 23 26 23H4C2.346 23 1 21.654 1 20V4C1 2.346 2.346 1 4 1H26C27.654 1 29 2.346 29 4V20Z" fill="black" fill-opacity="0.15"/>
<path d="M15 4.167L14.745 4.951H13.921L14.588 5.435L14.333 6.219L15 5.735L15.667 6.219L15.412 5.435L16.079 4.951H15.255L15 4.167Z" fill="#F6CD46"/>
<path d="M15.255 18.565L15 17.781L14.745 18.565H13.921L14.588 19.049L14.333 19.833L15 19.349L15.667 19.833L15.412 19.049L16.079 18.565H15.255Z" fill="#F6CD46"/>
<path d="M8.193 12.542L8.86 13.026L8.605 12.242L9.272 11.758H8.448L8.193 10.974L7.938 11.758H7.114L7.781 12.242L7.526 13.026L8.193 12.542Z" fill="#F6CD46"/>
<path d="M11.596 5.079L11.342 5.863H10.517L11.184 6.347L10.93 7.131L11.596 6.647L12.263 7.131L12.009 6.347L12.675 5.863H11.851L11.596 5.079Z" fill="#F6CD46"/>
<path d="M9.105 7.57L8.85 8.354H8.026L8.693 8.839L8.438 9.623L9.105 9.138L9.772 9.623L9.517 8.839L10.184 8.354H9.36L9.105 7.57Z" fill="#F6CD46"/>
<path d="M9.36 15.161L9.105 14.377L8.85 15.161H8.026L8.693 15.646L8.438 16.43L9.105 15.945L9.772 16.43L9.517 15.646L10.184 15.161H9.36Z" fill="#F6CD46"/>
<path d="M11.851 17.653L11.596 16.869L11.342 17.653H10.517L11.184 18.137L10.93 18.921L11.596 18.437L12.263 18.921L12.009 18.137L12.675 17.653H11.851Z" fill="#F6CD46"/>
<path d="M22.886 11.758H22.062L21.807 10.974L21.552 11.758H20.728L21.395 12.242L21.14 13.026L21.807 12.542L22.474 13.026L22.219 12.242L22.886 11.758Z" fill="#F6CD46"/>
<path d="M18.404 5.079L18.149 5.863H17.325L17.991 6.347L17.737 7.131L18.404 6.647L19.07 7.131L18.816 6.347L19.483 5.863H18.658L18.404 5.079Z" fill="#F6CD46"/>
<path d="M20.483 8.839L20.228 9.623L20.895 9.138L21.562 9.623L21.307 8.839L21.974 8.354H21.15L20.895 7.57L20.64 8.354H19.816L20.483 8.839Z" fill="#F6CD46"/>
<path d="M21.15 15.161L20.895 14.377L20.64 15.161H19.816L20.483 15.646L20.228 16.43L20.895 15.945L21.562 16.43L21.307 15.646L21.974 15.161H21.15Z" fill="#F6CD46"/>
<path d="M18.658 17.653L18.404 16.869L18.149 17.653H17.325L17.991 18.137L17.737 18.921L18.404 18.437L19.07 18.921L18.816 18.137L19.483 17.653H18.658Z" fill="#F6CD46"/>
<path d="M26 1H4C2.343 1 1 2.343 1 4V5C1 3.343 2.343 2 4 2H26C27.657 2 29 3.343 29 5V4C29 2.343 27.657 1 26 1Z" fill="white" fill-opacity="0.2"/>
</svg>
