<svg width="20" height="16" viewBox="0 0 20 16" fill="none" xmlns="http://www.w3.org/2000/svg">
<path d="M17.3333 0H2.66667C1.19391 0 0 1.19391 0 2.66667V13.3333C0 14.8061 1.19391 16 2.66667 16H17.3333C18.8061 16 20 14.8061 20 13.3333V2.66667C20 1.19391 18.8061 0 17.3333 0Z" fill="white"/>
<path d="M17.3333 0H2.66667C1.19391 0 0 1.19391 0 2.66667V13.3333C0 14.8061 1.19391 16 2.66667 16H17.3333C18.8061 16 20 14.8061 20 13.3333V2.66667C20 1.19391 18.8061 0 17.3333 0ZM19.3333 13.3333C19.3333 14.436 18.436 15.3333 17.3333 15.3333H2.66667C1.564 15.3333 0.666667 14.436 0.666667 13.3333V2.66667C0.666667 1.564 1.564 0.666667 2.66667 0.666667H17.3333C18.436 0.666667 19.3333 1.564 19.3333 2.66667V13.3333Z" fill="black" fill-opacity="0.15"/>
<path d="M10 12C12.2091 12 14 10.2091 14 8C14 5.79086 12.2091 4 10 4C7.79086 4 6 5.79086 6 8C6 10.2091 7.79086 12 10 12Z" fill="#AE232F"/>
<path d="M17.3333 0.666667H2.66667C1.562 0.666667 0.666667 1.562 0.666667 2.66667V3.33333C0.666667 2.22867 1.562 1.33333 2.66667 1.33333H17.3333C18.438 1.33333 19.3333 2.22867 19.3333 3.33333V2.66667C19.3333 1.562 18.438 0.666667 17.3333 0.666667Z" fill="white" fill-opacity="0.2"/>
</svg>
