<svg width="60" height="60" viewBox="0 0 60 60" fill="none" xmlns="http://www.w3.org/2000/svg">
<path fill-rule="evenodd" clip-rule="evenodd" d="M45.9717 17.5477C46.119 17.5321 46.2683 17.5237 46.4198 17.5237C46.5605 17.5237 46.6997 17.5306 46.8369 17.5441C48.0592 17.6644 49.1278 18.308 49.8159 19.2477C50.3252 19.9435 50.626 20.8016 50.626 21.7299C50.626 23.0504 50.0174 24.2289 49.0654 25C48.3428 25.5854 47.4222 25.9361 46.4198 25.9361L45.7371 25.9361L45.7372 25.9192C45.7372 21.7564 42.3626 18.3818 38.1998 18.3818C37.6504 18.3818 37.1149 18.4412 36.5992 18.5533V10.001C36.6052 10.0009 36.6112 10.0007 36.6172 10.0005C36.6263 10.0003 36.6354 10 36.6446 10C37.7619 10 38.8061 10.3126 39.6946 10.855C39.9431 11.0067 40.1795 11.1764 40.4019 11.3623C40.4573 11.4087 40.5119 11.456 40.5656 11.5043C40.5981 11.5336 40.6302 11.5633 40.6621 11.5933C40.7485 11.6746 40.8323 11.7585 40.9136 11.8448C41.6007 12.5746 42.1029 13.4805 42.3454 14.4875C42.9542 14.5168 43.5264 14.6854 44.0308 14.962C44.3705 15.1482 44.6794 15.3835 44.9482 15.6582C44.9482 15.6582 45.8116 16.8215 45.9717 17.5477Z" fill="#E6F3FF"/>
<path d="M35.2523 39.6306C35.1231 39.6306 34.9939 39.5812 34.8951 39.4827C34.6978 39.2853 34.6978 38.9658 34.8951 38.7685L38.7335 34.9302C38.9308 34.7328 39.2504 34.7328 39.4476 34.9302C39.6448 35.1275 39.645 35.4471 39.4476 35.6443L35.6093 39.4827C35.5107 39.5812 35.3817 39.6306 35.2523 39.6306Z" fill="#2B9ED8"/>
<path d="M29.057 39.6306C28.9277 39.6306 28.7986 39.5812 28.6998 39.4827C28.5025 39.2853 28.5025 38.9658 28.6998 38.7685L32.5382 34.9302C32.7355 34.7328 33.0551 34.7328 33.2523 34.9302C33.4495 35.1275 33.4496 35.4471 33.2523 35.6443L29.4139 39.4827C29.3154 39.5812 29.1864 39.6306 29.057 39.6306Z" fill="#2B9ED8"/>
<path d="M22.8619 39.6306C22.7326 39.6306 22.6035 39.5812 22.5047 39.4827C22.3074 39.2853 22.3074 38.9658 22.5047 38.7685L26.3431 34.9302C26.5404 34.7328 26.86 34.7328 27.0572 34.9302C27.2544 35.1275 27.2545 35.4471 27.0572 35.6443L23.2189 39.4827C23.1203 39.5812 22.9912 39.6306 22.8619 39.6306Z" fill="#2B9ED8"/>
<path d="M16.6666 39.6306C16.5373 39.6306 16.4086 39.5812 16.3099 39.4827C16.1125 39.2853 16.112 38.9658 16.3094 38.7685L17.5084 37.5695L20.1477 34.9302C20.3451 34.7328 20.6646 34.7328 20.8619 34.9302C21.0591 35.1275 21.0592 35.4471 20.8619 35.6443L17.0235 39.4827C16.925 39.5812 16.7958 39.6306 16.6666 39.6306Z" fill="#2B9ED8"/>
<path d="M35.2523 46.8023C35.1231 46.8023 34.9939 46.7529 34.8951 46.6544C34.6978 46.457 34.6978 46.1375 34.8951 45.9403L38.7335 42.1019C38.9308 41.9046 39.2504 41.9046 39.4476 42.1019C39.6448 42.2993 39.645 42.6188 39.4476 42.816L35.6093 46.6544C35.5107 46.7529 35.3817 46.8023 35.2523 46.8023Z" fill="#2B9ED8"/>
<path d="M29.057 46.8023C28.9277 46.8023 28.7986 46.7529 28.6998 46.6544C28.5025 46.457 28.5025 46.1375 28.6998 45.9403L32.5382 42.1019C32.7355 41.9046 33.0551 41.9046 33.2523 42.1019C33.4495 42.2993 33.4496 42.6188 33.2523 42.816L29.4139 46.6544C29.3154 46.7529 29.1864 46.8023 29.057 46.8023Z" fill="#2B9ED8"/>
<path d="M22.8619 46.8023C22.7326 46.8023 22.6035 46.7529 22.5047 46.6544C22.3074 46.457 22.3074 46.1375 22.5047 45.9403L26.3431 42.1019C26.5404 41.9046 26.86 41.9046 27.0572 42.1019C27.2544 42.2993 27.2545 42.6188 27.0572 42.816L23.2189 46.6544C23.1203 46.7529 22.9912 46.8023 22.8619 46.8023Z" fill="#2B9ED8"/>
<path d="M16.6666 46.8023C16.5373 46.8023 16.4086 46.7528 16.3099 46.6543C16.1125 46.4569 16.112 46.1375 16.3094 45.9403L19.5384 42.7112L20.1477 42.1019C20.3451 41.9046 20.6646 41.9046 20.8619 42.1019C21.0591 42.2993 21.0592 42.6188 20.8619 42.816L17.0235 46.6544C16.925 46.7529 16.7958 46.8023 16.6666 46.8023Z" fill="#2B9ED8"/>
<path fill-rule="evenodd" clip-rule="evenodd" d="M16.3099 46.6543C16.4086 46.7528 16.5373 46.8023 16.6666 46.8023C16.7958 46.8023 16.925 46.7529 17.0235 46.6544L20.8619 42.816C21.0592 42.6188 21.0591 42.2993 20.8619 42.1019C20.6646 41.9046 20.3451 41.9046 20.1477 42.1019L19.5384 42.7112L16.3094 45.9403C16.112 46.1375 16.1125 46.4569 16.3099 46.6543ZM16.3099 39.4827C16.4086 39.5812 16.5373 39.6306 16.6666 39.6306C16.7958 39.6306 16.925 39.5812 17.0235 39.4827L20.8619 35.6443C21.0592 35.4471 21.0591 35.1275 20.8619 34.9302C20.6646 34.7328 20.3451 34.7328 20.1477 34.9302L17.5084 37.5695L16.3094 38.7685C16.112 38.9658 16.1125 39.2853 16.3099 39.4827ZM35.2523 39.6306C35.1231 39.6306 34.9939 39.5812 34.8951 39.4827C34.6978 39.2853 34.6978 38.9658 34.8951 38.7685L38.7335 34.9302C38.9308 34.7328 39.2504 34.7328 39.4476 34.9302C39.6448 35.1275 39.645 35.4471 39.4476 35.6443L35.6093 39.4827C35.5107 39.5812 35.3817 39.6306 35.2523 39.6306ZM29.057 39.6306C28.9277 39.6306 28.7986 39.5812 28.6998 39.4827C28.5025 39.2853 28.5025 38.9658 28.6998 38.7685L32.5382 34.9302C32.7355 34.7328 33.0551 34.7328 33.2523 34.9302C33.4495 35.1275 33.4496 35.4471 33.2523 35.6443L29.4139 39.4827C29.3154 39.5812 29.1864 39.6306 29.057 39.6306ZM22.8619 39.6306C22.7326 39.6306 22.6035 39.5812 22.5047 39.4827C22.3074 39.2853 22.3074 38.9658 22.5047 38.7685L26.3431 34.9302C26.5404 34.7328 26.86 34.7328 27.0572 34.9302C27.2544 35.1275 27.2545 35.4471 27.0572 35.6443L23.2189 39.4827C23.1203 39.5812 22.9912 39.6306 22.8619 39.6306ZM35.2523 46.8023C35.1231 46.8023 34.9939 46.7529 34.8951 46.6544C34.6978 46.457 34.6978 46.1375 34.8951 45.9403L38.7335 42.1019C38.9308 41.9046 39.2504 41.9046 39.4476 42.1019C39.6448 42.2993 39.645 42.6188 39.4476 42.816L35.6093 46.6544C35.5107 46.7529 35.3817 46.8023 35.2523 46.8023ZM29.057 46.8023C28.9277 46.8023 28.7986 46.7529 28.6998 46.6544C28.5025 46.457 28.5025 46.1375 28.6998 45.9403L32.5382 42.1019C32.7355 41.9046 33.0551 41.9046 33.2523 42.1019C33.4495 42.2993 33.4496 42.6188 33.2523 42.816L29.4139 46.6544C29.3154 46.7529 29.1864 46.8023 29.057 46.8023ZM22.8619 46.8023C22.7326 46.8023 22.6035 46.7529 22.5047 46.6544C22.3074 46.457 22.3074 46.1375 22.5047 45.9403L26.3431 42.1019C26.5404 41.9046 26.86 41.9046 27.0572 42.1019C27.2544 42.2993 27.2545 42.6188 27.0572 42.816L23.2189 46.6544C23.1203 46.7529 22.9912 46.8023 22.8619 46.8023Z" fill="white"/>
<path fill-rule="evenodd" clip-rule="evenodd" d="M59.7354 34C57.7798 48.6773 45.2121 59.9998 29.9999 59.9998C29.9249 59.9997 29.8447 59.9985 29.7702 59.9972C29.7305 59.9966 29.6908 59.9959 29.651 59.9954L16.3099 46.6543C16.4086 46.7528 16.5373 46.8023 16.6666 46.8023C16.7958 46.8023 16.925 46.7529 17.0235 46.6544L20.8619 42.816C21.0592 42.6188 21.0591 42.2993 20.8619 42.1019C20.6646 41.9046 20.3451 41.9046 20.1477 42.1019L19.5384 42.7112L16.3099 39.4827C16.4086 39.5812 16.5373 39.6306 16.6666 39.6306C16.7958 39.6306 16.925 39.5812 17.0235 39.4827L20.8619 35.6443C21.0592 35.4471 21.0591 35.1275 20.8619 34.9302C20.6646 34.7328 20.3451 34.7328 20.1477 34.9302L17.5084 37.5695L11.7966 31.9047C12.5546 32.6504 13.532 33.1741 14.6229 33.3706C14.9359 33.427 15.2583 33.4564 15.5876 33.4564L28.047 33.4567L38.1998 33.4568C42.357 33.4568 45.728 30.0914 45.7371 25.9361L46.4198 25.9361C47.4222 25.9361 48.3428 25.5854 49.0654 25L59.7354 34ZM35.2523 39.6306C35.1231 39.6306 34.9939 39.5812 34.8951 39.4827C34.6978 39.2853 34.6978 38.9658 34.8951 38.7685L38.7335 34.9302C38.9308 34.7328 39.2504 34.7328 39.4476 34.9302C39.6448 35.1275 39.645 35.4471 39.4476 35.6443L35.6093 39.4827C35.5107 39.5812 35.3817 39.6306 35.2523 39.6306ZM29.057 39.6306C28.9277 39.6306 28.7986 39.5812 28.6998 39.4827C28.5025 39.2853 28.5025 38.9658 28.6998 38.7685L32.5382 34.9302C32.7355 34.7328 33.0551 34.7328 33.2523 34.9302C33.4495 35.1275 33.4496 35.4471 33.2523 35.6443L29.4139 39.4827C29.3154 39.5812 29.1864 39.6306 29.057 39.6306ZM22.8619 39.6306C22.7326 39.6306 22.6035 39.5812 22.5047 39.4827C22.3074 39.2853 22.3074 38.9658 22.5047 38.7685L26.3431 34.9302C26.5404 34.7328 26.86 34.7328 27.0572 34.9302C27.2544 35.1275 27.2545 35.4471 27.0572 35.6443L23.2189 39.4827C23.1203 39.5812 22.9912 39.6306 22.8619 39.6306ZM35.2523 46.8023C35.1231 46.8023 34.9939 46.7529 34.8951 46.6544C34.6978 46.457 34.6978 46.1375 34.8951 45.9403L38.7335 42.1019C38.9308 41.9046 39.2504 41.9046 39.4476 42.1019C39.6448 42.2993 39.645 42.6188 39.4476 42.816L35.6093 46.6544C35.5107 46.7529 35.3817 46.8023 35.2523 46.8023ZM29.057 46.8023C28.9277 46.8023 28.7986 46.7529 28.6998 46.6544C28.5025 46.457 28.5025 46.1375 28.6998 45.9403L32.5382 42.1019C32.7355 41.9046 33.0551 41.9046 33.2523 42.1019C33.4495 42.2993 33.4496 42.6188 33.2523 42.816L29.4139 46.6544C29.3154 46.7529 29.1864 46.8023 29.057 46.8023ZM22.8619 46.8023C22.7326 46.8023 22.6035 46.7529 22.5047 46.6544C22.3074 46.457 22.3074 46.1375 22.5047 45.9403L26.3431 42.1019C26.5404 41.9046 26.86 41.9046 27.0572 42.1019C27.2544 42.2993 27.2545 42.6188 27.0572 42.816L23.2189 46.6544C23.1203 46.7529 22.9912 46.8023 22.8619 46.8023Z" fill="#A3A3A3"/>
<path fill-rule="evenodd" clip-rule="evenodd" d="M30.9194 14.5932C30.2687 14.3442 29.5629 14.2064 28.8245 14.2064C28.5609 14.2064 28.3014 14.2237 28.047 14.2574V12.9783C28.0624 12.9781 28.0779 12.9773 28.0933 12.9772C28.1122 12.9771 28.1311 12.976 28.15 12.976C29.2445 12.976 30.2843 13.2094 31.2226 13.629C31.095 13.938 30.9931 14.2603 30.9194 14.5932Z" fill="#2B9ED8"/>
<path fill-rule="evenodd" clip-rule="evenodd" d="M29.651 59.9954C16.0163 59.8377 4.56411 50.5857 1.08479 38.0212C4.59368 50.6933 16.2119 59.9973 29.9999 59.9998C29.9249 59.9997 29.8447 59.9985 29.7702 59.9972C29.7305 59.9966 29.6908 59.9959 29.651 59.9954ZM0.186115 33.3598C0.189259 33.388 0.192442 33.4161 0.195664 33.4443L0.186115 33.3598Z" fill="#2B9ED8"/>
<path d="M45.9717 17.5477C46.119 17.5321 46.2683 17.5237 46.4198 17.5237C46.5605 17.5237 46.6997 17.5306 46.8369 17.5441C48.0592 17.6644 49.1278 18.308 49.8159 19.2477L54.9042 24.3361L59.9925 29.4244C59.7141 14.6296 48.7276 2.45489 34.4581 0.329001C33.9978 0.260423 33.5341 0.202301 33.0672 0.154886C32.9411 0.142084 32.8148 0.130062 32.6883 0.118825C31.8027 0.0401684 30.906 0 29.9999 0C13.4314 0 0 13.4314 0 29.9999C0 31.1357 0.0631425 32.2568 0.186115 33.3598L0.195664 33.4443C0.288564 34.2567 0.413909 35.0592 0.5704 35.8505C0.715464 36.584 0.88728 37.3079 1.08479 38.0212C4.56411 50.5857 16.0163 59.8377 29.651 59.9954L16.3099 46.6543C16.1125 46.4569 16.112 46.1375 16.3094 45.9403L19.5384 42.7112L16.3099 39.4827C16.1125 39.2853 16.112 38.9658 16.3094 38.7685L17.5084 37.5695L11.7966 31.9047L11.7654 31.8738C11.0657 31.1741 10.5569 30.2833 10.3239 29.2866C10.3081 29.2191 10.2936 29.1512 10.2804 29.0828L10.2778 29.0693C10.264 28.997 10.2517 28.9242 10.2408 28.8509C10.2287 28.769 10.2184 28.6865 10.2099 28.6035C10.1915 28.4218 10.182 28.2374 10.182 28.0508C10.182 25.0654 12.6022 22.6452 15.5876 22.6452C15.7822 22.6452 15.9741 22.6561 16.1634 22.6762C16.643 20.5005 18.5313 18.8535 20.8238 18.7432C21.6126 15.4669 24.5397 13.0253 28.047 12.9783L28.0685 12.9778C28.0768 12.9775 28.085 12.9773 28.0933 12.9772C28.1021 12.9771 28.1109 12.9769 28.1196 12.9766C28.1297 12.9763 28.1398 12.976 28.15 12.976C29.2445 12.976 30.2843 13.2094 31.2226 13.629C31.3187 13.3961 31.4294 13.1707 31.5535 12.9539C31.6009 12.8712 31.6502 12.7898 31.7015 12.7096C31.7666 12.6078 31.8347 12.5081 31.9058 12.4107C31.967 12.3269 32.0303 12.2448 32.0957 12.1644C32.1472 12.1011 32.2001 12.0389 32.2541 11.9779C33.3282 10.7648 34.8968 10 36.6446 10C37.7619 10 38.8061 10.3126 39.6946 10.855C39.9431 11.0067 40.1795 11.1764 40.4019 11.3623C40.4573 11.4087 40.5119 11.456 40.5656 11.5043C40.5981 11.5336 40.6302 11.5633 40.6621 11.5933C40.7485 11.6746 40.8323 11.7585 40.9136 11.8448C41.6007 12.5746 42.1029 13.4805 42.3454 14.4875C42.9542 14.5168 43.5264 14.6854 44.0308 14.962C44.3705 15.1482 44.6794 15.3835 44.9482 15.6582C44.9482 15.6582 45.8116 16.8215 45.9717 17.5477Z" fill="#787878"/>
<path fill-rule="evenodd" clip-rule="evenodd" d="M36.5992 10.001C34.8697 10.0141 33.3189 10.7756 32.2541 11.9779C33.3282 10.7648 34.8968 10 36.6446 10C36.6354 10 36.6263 10.0003 36.6172 10.0005L36.5992 10.001Z" fill="#2B9ED8"/>
<path d="M36.5992 18.5533V10.001C34.8697 10.0141 33.3189 10.7756 32.2541 11.9779C32.2001 12.0389 32.1472 12.1011 32.0957 12.1644C32.0303 12.2448 31.967 12.3269 31.9058 12.4107C31.8347 12.5081 31.7666 12.6078 31.7015 12.7096C31.6502 12.7898 31.6009 12.8712 31.5535 12.9539C31.4294 13.1707 31.3187 13.3961 31.2226 13.629C32.4536 14.1796 33.5098 15.051 34.2852 16.1367C34.8634 16.9463 35.2854 17.875 35.5076 18.8788C35.8596 18.7441 36.2242 18.6347 36.5992 18.5533Z" fill="white"/>
<path d="M30.9194 14.5932C30.2687 14.3442 29.5629 14.2064 28.8245 14.2064C28.5609 14.2064 28.3014 14.2237 28.047 14.2574V25.8852C28.3014 25.9189 28.5609 25.9363 28.8245 25.9363H36.5992V18.5533C36.2242 18.6347 35.8596 18.7441 35.5076 18.8788C35.2854 17.875 34.8634 16.9463 34.2852 16.1367C33.5098 15.051 32.4536 14.1796 31.2226 13.629C31.095 13.938 30.9931 14.2603 30.9194 14.5932Z" fill="#2B9ED8"/>
<path fill-rule="evenodd" clip-rule="evenodd" d="M45.7371 25.9361C45.728 30.0914 42.357 33.4568 38.1998 33.4568L28.047 33.4567V25.8852C28.3014 25.9189 28.5609 25.9363 28.8245 25.9363H36.5992L45.7371 25.9361Z" fill="#2B9ED8"/>
<path d="M28.047 25.8852V14.2574C25.1753 14.6378 22.9595 17.0958 22.9595 20.0713C22.9595 23.0469 25.1753 25.5049 28.047 25.8852Z" fill="#31BAFD"/>
<path d="M15.5876 33.4564L28.047 33.4567V25.8852C25.1753 25.5049 22.9595 23.0469 22.9595 20.0713C22.9595 17.0958 25.1753 14.6378 28.047 14.2574V12.9783C24.5397 13.0253 21.6126 15.4669 20.8238 18.7432C18.5313 18.8535 16.643 20.5005 16.1634 22.6762C15.9741 22.6561 15.7822 22.6452 15.5876 22.6452C12.6022 22.6452 10.182 25.0654 10.182 28.0508C10.182 28.2374 10.1915 28.4218 10.2099 28.6035C10.2184 28.6865 10.2287 28.769 10.2408 28.8509C10.2517 28.9242 10.264 28.997 10.2778 29.0693L10.2804 29.0828C10.2936 29.1512 10.3081 29.2191 10.3239 29.2866C10.5569 30.2833 11.0657 31.1741 11.7654 31.8738L11.7966 31.9047C12.5546 32.6504 13.532 33.1741 14.6229 33.3706C14.9359 33.427 15.2583 33.4564 15.5876 33.4564Z" fill="#31BAFD"/>
<path d="M45.7371 25.9361L45.7372 25.9192C45.7372 21.7564 42.3626 18.3818 38.1998 18.3818C37.6504 18.3818 37.1149 18.4412 36.5992 18.5533V25.9363L45.7371 25.9361Z" fill="#2B9ED8"/>
<path d="M34.634 32H28.134L30.9606 22L20 35.6063H27.5L24.252 47.0866L34.634 32Z" fill="#FFD05B"/>
<path fill-rule="evenodd" clip-rule="evenodd" d="M50.626 21.7299C50.626 20.8016 50.3252 19.9435 49.8159 19.2477L54.9042 24.3361L59.9925 29.4244C59.9961 29.6158 59.9998 29.8076 59.9998 29.9999C59.9998 31.3562 59.9098 32.6914 59.7354 34L49.0654 25C50.0174 24.2289 50.626 23.0504 50.626 21.7299Z" fill="#787878"/>
</svg>
