<svg width="60" height="60" viewBox="0 0 60 60" fill="none" xmlns="http://www.w3.org/2000/svg">
<path d="M29.9999 59.9998C46.5684 59.9998 59.9998 46.5684 59.9998 29.9999C59.9998 13.4314 46.5684 0 29.9999 0C13.4314 0 0 13.4314 0 29.9999C0 46.5684 13.4314 59.9998 29.9999 59.9998Z" fill="#CFDBE6"/>
<path d="M59.9998 29.9999C59.9998 29.8076 59.9961 29.6159 59.9925 29.4244L49.812 19.2439L49.3318 20.039L44.9493 15.6565L44.859 15.7901L40.6612 11.5924L22.9596 24.2089L11.7653 31.8737L17.9838 38.0409L16.3099 39.4827L19.8446 43.0174L16.3099 46.6543L29.651 59.9954C29.7674 59.9968 29.883 59.9998 29.9999 59.9998C46.5684 59.9998 59.9998 46.5684 59.9998 29.9999Z" fill="#B8C9D9"/>
<path d="M28.8245 25.9363C25.5853 25.9363 22.9595 23.3105 22.9595 20.0713C22.9595 16.8322 25.5853 14.2064 28.8245 14.2064C29.5629 14.2064 30.2687 14.3442 30.9194 14.5932C31.5008 11.9657 33.8424 10 36.6446 10C39.4091 10 41.7254 11.9134 42.3454 14.4875C44.1292 14.5734 45.5985 15.8547 45.9717 17.5477C46.119 17.5321 46.2683 17.5237 46.4198 17.5237C48.7428 17.5237 50.626 19.4069 50.626 21.7299C50.626 24.0529 48.7428 25.9361 46.4198 25.9361L28.8245 25.9363Z" fill="white"/>
<path d="M46.4198 17.5237C46.2683 17.5237 46.119 17.5321 45.9717 17.5477C45.5985 15.8547 44.1292 14.5734 42.3454 14.4875C41.7254 11.9134 39.4091 10 36.6446 10C36.6293 10 36.6143 10.0007 36.5992 10.001V25.9363L46.4198 25.9361C48.7428 25.9361 50.626 24.0529 50.626 21.7299C50.626 19.4069 48.7428 17.5237 46.4198 17.5237Z" fill="#E6F3FF"/>
<path d="M38.1998 33.4568C42.3626 33.4568 45.7372 30.0823 45.7372 25.9192C45.7372 21.7564 42.3626 18.3818 38.1998 18.3818C37.2509 18.3818 36.3438 18.5588 35.5076 18.8788C34.7605 15.5023 31.7512 12.976 28.15 12.976C24.5971 12.976 21.6203 15.4348 20.8238 18.7432C18.5313 18.8535 16.643 20.5005 16.1634 22.6762C15.9741 22.6561 15.7822 22.6452 15.5876 22.6452C12.6022 22.6452 10.182 25.0654 10.182 28.0508C10.182 31.0363 12.6022 33.4564 15.5876 33.4564L38.1998 33.4568Z" fill="#31BAFD"/>
<path d="M38.1998 18.3818C37.2509 18.3818 36.3438 18.5588 35.5076 18.8788C34.7605 15.5023 31.7512 12.976 28.15 12.976C28.1154 12.976 28.0813 12.978 28.047 12.9783V33.4567L38.1998 33.4568C42.3626 33.4568 45.7372 30.0823 45.7372 25.9192C45.7372 21.7564 42.3626 18.3818 38.1998 18.3818Z" fill="#2B9ED8"/>
<path d="M35.2523 39.6306C35.1231 39.6306 34.9939 39.5812 34.8951 39.4827C34.6978 39.2853 34.6978 38.9658 34.8951 38.7685L38.7335 34.9302C38.9308 34.7328 39.2504 34.7328 39.4476 34.9302C39.6448 35.1275 39.645 35.4471 39.4476 35.6443L35.6093 39.4827C35.5107 39.5812 35.3817 39.6306 35.2523 39.6306Z" fill="#2B9ED8"/>
<path d="M29.057 39.6306C28.9277 39.6306 28.7986 39.5812 28.6998 39.4827C28.5025 39.2853 28.5025 38.9658 28.6998 38.7685L32.5382 34.9302C32.7355 34.7328 33.0551 34.7328 33.2523 34.9302C33.4495 35.1275 33.4496 35.4471 33.2523 35.6443L29.4139 39.4827C29.3154 39.5812 29.1864 39.6306 29.057 39.6306Z" fill="#2B9ED8"/>
<path d="M22.8619 39.6306C22.7326 39.6306 22.6035 39.5812 22.5047 39.4827C22.3074 39.2853 22.3074 38.9658 22.5047 38.7685L26.3431 34.9302C26.5404 34.7328 26.86 34.7328 27.0572 34.9302C27.2544 35.1275 27.2545 35.4471 27.0572 35.6443L23.2189 39.4827C23.1203 39.5812 22.9912 39.6306 22.8619 39.6306Z" fill="#2B9ED8"/>
<path d="M16.6666 39.6306C16.5373 39.6306 16.4086 39.5812 16.3099 39.4827C16.1125 39.2853 16.112 38.9658 16.3094 38.7685L20.1477 34.9302C20.3451 34.7328 20.6646 34.7328 20.8619 34.9302C21.0591 35.1275 21.0592 35.4471 20.8619 35.6443L17.0235 39.4827C16.925 39.5812 16.7958 39.6306 16.6666 39.6306Z" fill="#2B9ED8"/>
<path d="M35.2523 46.8023C35.1231 46.8023 34.9939 46.7529 34.8951 46.6544C34.6978 46.457 34.6978 46.1375 34.8951 45.9403L38.7335 42.1019C38.9308 41.9046 39.2504 41.9046 39.4476 42.1019C39.6448 42.2993 39.645 42.6188 39.4476 42.816L35.6093 46.6544C35.5107 46.7529 35.3817 46.8023 35.2523 46.8023Z" fill="#2B9ED8"/>
<path d="M29.057 46.8023C28.9277 46.8023 28.7986 46.7529 28.6998 46.6544C28.5025 46.457 28.5025 46.1375 28.6998 45.9403L32.5382 42.1019C32.7355 41.9046 33.0551 41.9046 33.2523 42.1019C33.4495 42.2993 33.4496 42.6188 33.2523 42.816L29.4139 46.6544C29.3154 46.7529 29.1864 46.8023 29.057 46.8023Z" fill="#2B9ED8"/>
<path d="M22.8619 46.8023C22.7326 46.8023 22.6035 46.7529 22.5047 46.6544C22.3074 46.457 22.3074 46.1375 22.5047 45.9403L26.3431 42.1019C26.5404 41.9046 26.86 41.9046 27.0572 42.1019C27.2544 42.2993 27.2545 42.6188 27.0572 42.816L23.2189 46.6544C23.1203 46.7529 22.9912 46.8023 22.8619 46.8023Z" fill="#2B9ED8"/>
<path d="M16.6666 46.8023C16.5373 46.8023 16.4086 46.7528 16.3099 46.6543C16.1125 46.4569 16.112 46.1375 16.3094 45.9403L20.1477 42.1019C20.3451 41.9046 20.6646 41.9046 20.8619 42.1019C21.0591 42.2993 21.0592 42.6188 20.8619 42.816L17.0235 46.6544C16.925 46.7529 16.7958 46.8023 16.6666 46.8023Z" fill="#2B9ED8"/>
<path d="M28.8245 25.9363C25.5853 25.9363 22.9595 23.3105 22.9595 20.0713C22.9595 16.8322 25.5853 14.2064 28.8245 14.2064C29.5629 14.2064 30.2687 14.3442 30.9194 14.5932C31.5008 11.9657 33.8424 10 36.6446 10C39.4091 10 41.7254 11.9134 42.3454 14.4875C44.1292 14.5734 45.5985 15.8547 45.9717 17.5477C46.119 17.5321 46.2683 17.5237 46.4198 17.5237C48.7428 17.5237 50.626 19.4069 50.626 21.7299C50.626 24.0529 48.7428 25.9361 46.4198 25.9361L28.8245 25.9363Z" fill="white"/>
</svg>
