<svg width="60" height="60" viewBox="0 0 60 60" fill="none" xmlns="http://www.w3.org/2000/svg">
<path fill-rule="evenodd" clip-rule="evenodd" d="M29.651 59.9954C29.6908 59.9959 29.7305 59.9966 29.7702 59.9972C29.748 59.9971 29.7258 59.9967 29.7036 59.9963L29.651 59.9954Z" fill="#CFDBE6"/>
<path fill-rule="evenodd" clip-rule="evenodd" d="M50.626 21.7299C50.626 20.8016 50.3252 19.9435 49.8159 19.2477L49.3318 20.039L46.8369 17.5441L44.9493 15.6565L44.9482 15.6582L44.859 15.7901L44.0308 14.962L40.9136 11.8448L40.6621 11.5933L40.6612 11.5924L22.9596 24.2089L11.7653 31.8737C12.7435 32.8517 14.0951 33.4564 15.5876 33.4564L28.047 33.4567L38.1998 33.4568C42.357 33.4568 45.728 30.0914 45.7371 25.9361L46.4198 25.9361C48.7428 25.9361 50.626 24.0529 50.626 21.7299Z" fill="#B8C9D9"/>
<path d="M28.8245 25.9363C25.5853 25.9363 22.9595 23.3105 22.9595 20.0713C22.9595 16.8322 25.5853 14.2064 28.8245 14.2064C29.5629 14.2064 30.2687 14.3442 30.9194 14.5932C30.9931 14.2603 31.095 13.938 31.2226 13.629C32.1016 11.4992 34.1975 10 36.6446 10C38.1996 10 39.6128 10.6054 40.6621 11.5933C40.7485 11.6746 40.8323 11.7585 40.9136 11.8448C41.6007 12.5746 42.1029 13.4805 42.3454 14.4875C42.9542 14.5168 43.5264 14.6854 44.0308 14.962C44.3705 15.1482 44.6794 15.3835 44.9482 15.6582C45.4499 16.1711 45.8116 16.8215 45.9717 17.5477C46.119 17.5321 46.2683 17.5237 46.4198 17.5237C46.5605 17.5237 46.6997 17.5306 46.8369 17.5441C48.0592 17.6644 49.1278 18.308 49.8159 19.2477C50.3252 19.9435 50.626 20.8016 50.626 21.7299C50.626 24.0529 48.7428 25.9361 46.4198 25.9361L45.7371 25.9361L28.8245 25.9363Z" fill="white"/>
<path d="M46.4198 17.5237C46.2683 17.5237 46.119 17.5321 45.9717 17.5477C45.8116 16.8215 45.4499 16.1711 44.9482 15.6582C44.6794 15.3835 44.3705 15.1482 44.0308 14.962C43.5264 14.6854 42.9542 14.5168 42.3454 14.4875C42.1029 13.4805 41.6007 12.5746 40.9136 11.8448C40.8323 11.7585 40.7485 11.6746 40.6621 11.5933C39.6128 10.6054 38.1996 10 36.6446 10C36.6293 10 36.6143 10.0007 36.5992 10.001V25.9363L45.7371 25.9361L46.4198 25.9361C48.7428 25.9361 50.626 24.0529 50.626 21.7299C50.626 20.8016 50.3252 19.9435 49.8159 19.2477C49.1278 18.308 48.0592 17.6644 46.8369 17.5441C46.6997 17.5306 46.5605 17.5237 46.4198 17.5237Z" fill="#E6F3FF"/>
<path d="M38.1998 33.4568C42.357 33.4568 45.728 30.0914 45.7371 25.9361C45.7372 25.9305 45.7372 25.9248 45.7372 25.9192C45.7372 21.7564 42.3626 18.3818 38.1998 18.3818C37.2509 18.3818 36.3438 18.5588 35.5076 18.8788C34.9875 16.5285 33.3714 14.5901 31.2226 13.629C30.2843 13.2094 29.2445 12.976 28.15 12.976C24.5971 12.976 21.6203 15.4348 20.8238 18.7432C18.5313 18.8535 16.643 20.5005 16.1634 22.6762C15.9741 22.6561 15.7822 22.6452 15.5876 22.6452C12.6022 22.6452 10.182 25.0654 10.182 28.0508C10.182 29.5437 10.787 30.8955 11.7653 31.8737C12.7435 32.8517 14.0951 33.4564 15.5876 33.4564L28.047 33.4567L38.1998 33.4568Z" fill="#31BAFD"/>
<path d="M38.1998 18.3818C37.2509 18.3818 36.3438 18.5588 35.5076 18.8788C34.9875 16.5285 33.3714 14.5901 31.2226 13.629C30.2843 13.2094 29.2445 12.976 28.15 12.976C28.1154 12.976 28.0813 12.978 28.047 12.9783V33.4567L38.1998 33.4568C42.357 33.4568 45.728 30.0914 45.7371 25.9361C45.7372 25.9305 45.7372 25.9248 45.7372 25.9192C45.7372 21.7564 42.3626 18.3818 38.1998 18.3818Z" fill="#2B9ED8"/>
<path d="M21.469 36.9807C21.2805 36.6329 20.8456 36.5051 20.4904 36.6897L19.28 37.3215V37.2262V35.7099C19.28 35.3195 18.9538 35 18.5551 35C18.1565 35 17.8303 35.3195 17.8303 35.7099V37.3215L16.6198 36.6897C16.2646 36.5051 15.8297 36.64 15.6412 36.9807C15.4528 37.3286 15.5905 37.7546 15.9384 37.9391L17.0112 38.5L16.2436 38.9013L16.2042 38.9219L15.9384 39.0609C15.5833 39.2454 15.4528 39.6714 15.6412 40.0193C15.7717 40.2606 16.0254 40.3955 16.2791 40.3955C16.3951 40.3955 16.5111 40.3671 16.6198 40.3103L17.0098 40.1068L17.8303 39.6785V41.2901C17.8303 41.3329 17.8342 41.3748 17.8417 41.4156C17.875 41.5965 17.9789 41.7541 18.1241 41.8599C18.2448 41.9478 18.394 42 18.5551 42C18.9538 42 19.28 41.6805 19.28 41.2901V39.6785L20.4904 40.3103C20.5992 40.3671 20.7151 40.3955 20.8311 40.3955C21.0921 40.3955 21.3385 40.2606 21.469 40.0193C21.6574 39.6714 21.527 39.2454 21.1718 39.0609L20.099 38.5L21.1718 37.9391C21.527 37.7546 21.6574 37.3286 21.469 36.9807Z" fill="white"/>
<path d="M37.1681 39.065L36.0921 38.5036L37.1681 37.9421C37.5267 37.7574 37.6584 37.3239 37.4681 36.9827C37.2778 36.6416 36.8314 36.5066 36.4801 36.6914L35.287 37.3168V35.7107C35.287 35.3198 34.9577 35 34.5551 35C34.1526 35 33.8232 35.3198 33.8232 35.7107V37.3168L32.6302 36.6914C32.2715 36.5066 31.8324 36.6345 31.6421 36.9827C31.4518 37.331 31.5835 37.7574 31.9422 37.9421L33.0181 38.5036L31.9422 39.065C31.5835 39.2497 31.4518 39.6833 31.6421 40.0244C31.7738 40.266 32.03 40.401 32.2862 40.401C32.4033 40.401 32.5204 40.3726 32.6302 40.3157L33.8232 39.6904V41.2893C33.8232 41.6802 34.1526 42 34.5551 42C34.9577 42 35.287 41.6802 35.287 41.2893V39.6904L36.4801 40.3157C36.5898 40.3726 36.707 40.401 36.8241 40.401C37.0876 40.401 37.3364 40.266 37.4681 40.0244C37.6584 39.6833 37.5267 39.2497 37.1681 39.065Z" fill="white"/>
<path d="M30.4546 46.7363C30.6745 46.3387 30.5138 45.8519 30.1079 45.641L28.8564 45L30.1079 44.359C30.5223 44.1481 30.6745 43.6613 30.4546 43.2637C30.2348 42.8661 29.7274 42.7201 29.313 42.931L27.9008 43.6531V41.8114C27.9008 41.3651 27.5202 41 27.0551 41C26.59 41 26.2095 41.3651 26.2095 41.8114V43.6531L24.7972 42.931C24.3829 42.7201 23.8755 42.8742 23.6556 43.2637C23.4357 43.6613 23.5964 44.1481 24.0023 44.359L25.2539 45L24.0023 45.641C23.5879 45.8519 23.4357 46.3387 23.6556 46.7363C23.8078 47.0122 24.1038 47.1663 24.3998 47.1663C24.5351 47.1663 24.6704 47.1339 24.7972 47.069L26.2095 46.3469V48.1886C26.2095 48.6349 26.59 49 27.0551 49C27.5202 49 27.9008 48.6349 27.9008 48.1886V46.3469L29.313 47.069C29.4399 47.1339 29.5752 47.1663 29.7105 47.1663C30.0149 47.1663 30.3024 47.0122 30.4546 46.7363Z" fill="white"/>
<path fill-rule="evenodd" clip-rule="evenodd" d="M59.9927 29.4326L49.8159 19.2477C50.3252 19.9435 50.626 20.8016 50.626 21.7299C50.626 24.0529 48.7428 25.9361 46.4198 25.9361L45.7371 25.9361C45.728 30.0914 42.357 33.4568 38.1998 33.4568L28.047 33.4567L15.5876 33.4564C14.1109 33.4564 12.7722 32.8645 11.7966 31.9047L16.2274 38.8758L16.2436 38.9013L17.0112 38.5L15.9384 37.9391C15.5905 37.7546 15.4528 37.3286 15.6412 36.9807C15.8297 36.64 16.2646 36.5051 16.6198 36.6897L17.8303 37.3215V35.7099C17.8303 35.3195 18.1565 35 18.5551 35C18.9538 35 19.28 35.3195 19.28 35.7099V37.2262V37.3215L20.4904 36.6897C20.8456 36.5051 21.2805 36.6329 21.469 36.9807C21.6574 37.3286 21.527 37.7546 21.1718 37.9391L20.099 38.5L21.1718 39.0609C21.527 39.2454 21.6574 39.6714 21.469 40.0193C21.3385 40.2606 21.0921 40.3955 20.8311 40.3955C20.7151 40.3955 20.5992 40.3671 20.4904 40.3103L19.28 39.6785V41.2901C19.28 41.6805 18.9538 42 18.5551 42C18.394 42 18.2448 41.9478 18.1241 41.8599L29.651 59.9954C29.6908 59.9959 29.7305 59.9966 29.7702 59.9972C29.8466 59.9985 29.923 59.9998 29.9999 59.9998C46.5684 59.9998 59.9998 46.5684 59.9998 29.9999C59.9998 29.8076 59.9963 29.6241 59.9927 29.4326ZM36.0921 38.5036L37.1681 39.065C37.5267 39.2497 37.6584 39.6833 37.4681 40.0244C37.3364 40.266 37.0876 40.401 36.8241 40.401C36.707 40.401 36.5898 40.3726 36.4801 40.3157L35.287 39.6904V41.2893C35.287 41.6802 34.9577 42 34.5551 42C34.1526 42 33.8232 41.6802 33.8232 41.2893V39.6904L32.6302 40.3157C32.5204 40.3726 32.4033 40.401 32.2862 40.401C32.03 40.401 31.7738 40.266 31.6421 40.0244C31.4518 39.6833 31.5835 39.2497 31.9422 39.065L33.0181 38.5036L31.9422 37.9421C31.5835 37.7574 31.4518 37.331 31.6421 36.9827C31.8324 36.6345 32.2715 36.5066 32.6302 36.6914L33.8232 37.3168V35.7107C33.8232 35.3198 34.1526 35 34.5551 35C34.9577 35 35.287 35.3198 35.287 35.7107V37.3168L36.4801 36.6914C36.8314 36.5066 37.2778 36.6416 37.4681 36.9827C37.6584 37.3239 37.5267 37.7574 37.1681 37.9421L36.0921 38.5036ZM30.1079 45.641C30.5138 45.8519 30.6745 46.3387 30.4546 46.7363C30.3024 47.0122 30.0149 47.1663 29.7105 47.1663C29.5752 47.1663 29.4399 47.1339 29.313 47.069L27.9008 46.3469V48.1886C27.9008 48.6349 27.5202 49 27.0551 49C26.59 49 26.2095 48.6349 26.2095 48.1886V46.3469L24.7972 47.069C24.6704 47.1339 24.5351 47.1663 24.3998 47.1663C24.1038 47.1663 23.8078 47.0122 23.6556 46.7363C23.4357 46.3387 23.5879 45.8519 24.0023 45.641L25.2539 45L24.0023 44.359C23.5964 44.1481 23.4357 43.6613 23.6556 43.2637C23.8755 42.8742 24.3829 42.7201 24.7972 42.931L26.2095 43.6531V41.8114C26.2095 41.3651 26.59 41 27.0551 41C27.5202 41 27.9008 41.3651 27.9008 41.8114V43.6531L29.313 42.931C29.7274 42.7201 30.2348 42.8661 30.4546 43.2637C30.6745 43.6613 30.5223 44.1481 30.1079 44.359L28.8564 45L30.1079 45.641Z" fill="#B8C9D9"/>
<path d="M59.9927 29.4326C59.6859 13.1298 46.3761 0 29.9999 0C13.4314 0 0 13.4314 0 29.9999C0 46.4519 13.2433 59.8085 29.651 59.9954L18.1241 41.8599C17.9789 41.7541 17.875 41.5965 17.8417 41.4156L17.0098 40.1068L16.6198 40.3103C16.5111 40.3671 16.3951 40.3955 16.2791 40.3955C16.0254 40.3955 15.7717 40.2606 15.6412 40.0193C15.4528 39.6714 15.5833 39.2454 15.9384 39.0609L16.2042 38.9219C16.2111 38.9062 16.2189 38.8908 16.2274 38.8758L11.7966 31.9047C11.7861 31.8944 11.7757 31.8841 11.7653 31.8737C10.787 30.8955 10.182 29.5437 10.182 28.0508C10.182 25.0654 12.6022 22.6452 15.5876 22.6452C15.7822 22.6452 15.9741 22.6561 16.1634 22.6762C16.643 20.5005 18.5313 18.8535 20.8238 18.7432C21.6203 15.4348 24.5971 12.976 28.15 12.976C29.2445 12.976 30.2843 13.2094 31.2226 13.629C32.1016 11.4992 34.1975 10 36.6446 10C38.1992 10 39.612 10.605 40.6612 11.5924L40.6621 11.5933C40.7485 11.6746 40.8323 11.7585 40.9136 11.8448L44.0308 14.962C44.3705 15.1482 44.6794 15.3835 44.9482 15.6582L44.9493 15.6565L46.8369 17.5441C48.0592 17.6644 49.1278 18.308 49.8159 19.2477L59.9927 29.4326Z" fill="#CFDBE6"/>
</svg>
