<svg width="60" height="60" viewBox="0 0 60 60" fill="none" xmlns="http://www.w3.org/2000/svg">
<path d="M30 60C46.5685 60 60 46.5685 60 30C60 13.4315 46.5685 0 30 0C13.4315 0 0 13.4315 0 30C0 46.5685 13.4315 60 30 60Z" fill="#ACE4FF"/>
<path d="M33.1256 59.8384C47.1977 58.3814 58.3816 47.1979 59.8385 33.1255L44.2136 17.5004L40.6366 20.5352L31.2122 11.1113L28.7879 16.508L36.5103 24.2304L31.2275 29.5132L21.3169 19.6025L19.6028 21.3166L29.3943 31.3467L24.2306 36.5103L16.508 28.7879L11.1113 31.2122L20.0448 40.1457L17.5008 44.2134L33.1256 59.8384Z" fill="#6ECFFF"/>
<path d="M30 40.7939C35.9613 40.7939 40.7939 35.9613 40.7939 30C40.7939 24.0387 35.9613 19.2061 30 19.2061C24.0387 19.2061 19.2061 24.0387 19.2061 30C19.2061 35.9613 24.0387 40.7939 30 40.7939Z" fill="#F9B54C"/>
<path d="M30 19.2061C29.9774 19.2061 29.9554 19.2081 29.9327 19.2081V40.7919C29.9554 40.7921 29.9774 40.7939 30 40.7939C35.9613 40.7939 40.7939 35.9613 40.7939 30C40.7939 24.0387 35.9613 19.2061 30 19.2061Z" fill="#F4A200"/>
<path d="M31.2122 11.1113L28.7879 11.1111V16.508L31.2122 16.5079L31.2122 11.1113Z" fill="#F2D453"/>
<path d="M31.2122 11.1113L29.9333 11.1111V16.5079H31.2122L31.2122 11.1113Z" fill="#F4A200"/>
<path d="M31.2122 43.493H28.7879V48.8897H31.2122V43.493Z" fill="#F2D453"/>
<path d="M31.2122 43.493H29.9333V48.8897H31.2122V43.493Z" fill="#F4A200"/>
<path d="M48.8897 28.7879H43.493V31.2122H48.8897V28.7879Z" fill="#F4A200"/>
<path d="M16.508 28.7879H11.1111L11.1113 31.2122L16.5079 31.2122L16.508 28.7879Z" fill="#F2D453"/>
<path d="M38.6844 19.6021L40.3986 21.3163L44.2147 17.5003L42.5005 15.7861L38.6844 19.6021Z" fill="#F4A200"/>
<path d="M15.7861 42.4989L17.5008 44.2134L21.3163 40.3971L19.6021 38.6829L15.7861 42.4989Z" fill="#F2D453"/>
<path d="M15.7859 17.4996L19.602 21.3156L21.3161 19.6014L17.5001 15.7854L15.7859 17.4996Z" fill="#F2D453"/>
<path d="M38.6829 40.3972L42.499 44.2132L44.2132 42.499L40.3971 38.683L38.6829 40.3972Z" fill="#F4A200"/>
</svg>
