<svg width="60" height="60" viewBox="0 0 60 60" fill="none" xmlns="http://www.w3.org/2000/svg">
<path d="M45.2929 21.7214C45.1413 21.7214 44.992 21.7298 44.8447 21.7454C44.6847 21.0192 44.323 20.3688 43.8213 19.8559C43.5525 19.5812 43.2435 19.3459 42.9039 19.1597C42.3995 18.883 41.8273 18.7145 41.2185 18.6852C40.9759 17.6781 40.4738 16.7723 39.7868 16.0425C39.7054 15.9561 39.6215 15.8722 39.5352 15.7909C38.4859 14.8031 37.0727 14.1977 35.5177 14.1977C35.5024 14.1977 35.4874 14.1984 35.4722 14.1987L35.4804 30.1339L44.6184 30.1338L45.2929 30.1337C47.6159 30.1337 49.4991 28.2505 49.4991 25.9276C49.4991 24.9992 49.1983 24.1412 48.689 23.4454C48.0009 22.5057 46.9323 21.8621 45.71 21.7418C45.5728 21.7283 45.4336 21.7214 45.2929 21.7214Z" fill="#E6F3FF"/>
<path fill-rule="evenodd" clip-rule="evenodd" d="M44.6184 30.1338L44.6102 30.1169C44.6102 25.954 41.2357 22.5795 37.0729 22.5795C36.124 22.5795 35.2169 22.7565 34.3806 23.0765C33.8606 20.7262 32.2445 18.7878 30.0956 17.8267C29.1574 17.407 28.1176 17.1737 27.0231 17.1737C23.4702 17.1737 20.4934 19.6325 19.6969 22.9409C17.4043 23.0512 15.5161 24.6981 15.0365 26.8738C14.8472 26.8538 14.6552 26.8429 14.4607 26.8429C11.4753 26.8429 9.05511 29.263 9.05511 32.2485C9.05511 33.7414 9.66004 35.0931 10.6384 36.0714C11.3852 36.818 12.3496 37.3471 13.4282 37.5556C13.7624 37.6203 14.1076 37.6541 14.4607 37.6541L17.5946 37.6542L21.5725 37.6542L26.9282 37.6543V30.0829C27.1826 30.1166 27.4421 30.134 27.7057 30.134L35.4804 30.1339L44.6184 30.1338Z" fill="#31BAFD"/>
<path fill-rule="evenodd" clip-rule="evenodd" d="M34.3806 23.0765C35.2169 22.7565 36.124 22.5795 37.0729 22.5795C41.2357 22.5795 44.6102 25.954 44.6102 30.1169L44.6184 30.1338L35.4804 30.1339L27.7057 30.134C27.4421 30.134 27.1826 30.1166 26.9282 30.0829L26.92 17.176C26.9355 17.1759 26.951 17.1754 26.9664 17.1749C26.9852 17.1743 27.0041 17.1737 27.0231 17.1737C28.1176 17.1737 29.1574 17.407 30.0956 17.8267C32.2445 18.7878 33.8606 20.7262 34.3806 23.0765Z" fill="#2B9ED8"/>
<path fill-rule="evenodd" clip-rule="evenodd" d="M35.0723 37.6544L26.9282 37.6543L21.5725 37.6542L20 39.6063H26.0945L24.252 51.0866L35.0723 37.6544Z" fill="#A3A3A3"/>
<path d="M26.9282 37.6543V30.0829C27.1826 30.1166 27.4421 30.134 27.7057 30.134L35.4804 30.1339L44.6184 30.1338C44.6093 34.2891 41.2383 37.6545 37.081 37.6545L35.0723 37.6544L26.9282 37.6543Z" fill="#2B9ED8"/>
<path d="M59.9927 29.4326C59.6859 13.1298 46.3761 0 29.9999 0C13.4314 0 0 13.4314 0 29.9999C0 46.4519 13.2433 59.8085 29.651 59.9954L15.1829 39.352L13.4282 37.5556C12.3646 37.35 11.412 36.8327 10.6697 36.1024C10.6592 36.0921 10.6488 36.0817 10.6384 36.0714C9.66004 35.0931 9.05511 33.7414 9.05511 32.2485C9.05511 29.263 11.4753 26.8429 14.4607 26.8429C14.6552 26.8429 14.8472 26.8538 15.0365 26.8738C15.5161 24.6981 17.4043 23.0512 19.6969 22.9409C20.4934 19.6325 23.4702 17.1737 27.0231 17.1737C28.1176 17.1737 29.1574 17.407 30.0956 17.8267C30.9747 15.6969 33.0706 14.1977 35.5177 14.1977C37.0727 14.1977 38.4859 14.8031 39.5352 15.7909C39.6215 15.8722 39.7054 15.9561 39.7868 16.0425C40.4738 16.7723 40.9759 17.6781 41.2185 18.6852C41.8273 18.7145 42.3995 18.883 42.9039 19.1597C43.2435 19.3459 43.5525 19.5812 43.8213 19.8559C44.323 20.3688 44.6847 21.0192 44.8447 21.7454C44.992 21.7298 45.1413 21.7214 45.2929 21.7214C45.4336 21.7214 45.5728 21.7283 45.71 21.7418C46.9323 21.8621 48.0009 22.5057 48.689 23.4454L54.3408 26.439L59.9927 29.4326Z" fill="#787878"/>
<path d="M14.4607 37.6541C14.1076 37.6541 13.7624 37.6203 13.4282 37.5556L15.1829 39.352C15.2817 39.4505 15.4104 39.5 15.5397 39.5C15.6689 39.5 15.7981 39.4507 15.8966 39.3521L17.5946 37.6542L14.4607 37.6541Z" fill="#A3A3A3"/>
<path d="M35.2126 37.4803H29.1181L30.9606 26L21.5725 37.6542L20 39.6063H26.0945L24.252 51.0866L35.0723 37.6544L35.2126 37.4803Z" fill="#FFD05B"/>
<path fill-rule="evenodd" clip-rule="evenodd" d="M59.9927 29.4326C59.9963 29.6241 59.9998 29.8076 59.9998 29.9999C59.9998 34.1886 59.1413 38.1769 57.5907 41.7983L45.2929 30.1337C47.6159 30.1337 49.4991 28.2505 49.4991 25.9276C49.4991 24.9992 49.1983 24.1412 48.689 23.4454L54.3408 26.439L59.9927 29.4326Z" fill="#A3A3A3"/>
<path fill-rule="evenodd" clip-rule="evenodd" d="M44.6184 30.1338L45.2929 30.1337L57.5907 41.7983C53.0079 52.5012 42.3796 59.9998 29.9999 59.9998C29.923 59.9998 29.8466 59.9985 29.7702 59.9972C29.7305 59.9966 29.6908 59.9959 29.651 59.9954L15.1829 39.352C15.2817 39.4505 15.4104 39.5 15.5397 39.5C15.6689 39.5 15.7981 39.4507 15.8966 39.3521L17.5946 37.6542L21.5725 37.6542L20 39.6063H26.0945L24.252 51.0866L35.0723 37.6544L37.081 37.6545C41.2383 37.6545 44.6093 34.2891 44.6184 30.1338Z" fill="#A3A3A3"/>
</svg>
