<svg width="20" height="16" viewBox="0 0 20 16" fill="none" xmlns="http://www.w3.org/2000/svg">
<path d="M17.3333 0H2.66667C1.19391 0 0 1.19391 0 2.66667V13.3333C0 14.8061 1.19391 16 2.66667 16H17.3333C18.8061 16 20 14.8061 20 13.3333V2.66667C20 1.19391 18.8061 0 17.3333 0Z" fill="#071B65"/>
<path d="M2.734 0H2.66667C1.346 0 0.256667 0.962667 0.0446667 2.22267L17.266 16H17.3333C18.654 16 19.7433 15.0373 19.9553 13.7773L2.734 0Z" fill="white"/>
<path d="M14.1667 10H12.5L19.1227 15.298C19.3807 15.0627 19.592 14.78 19.742 14.46L14.1667 10Z" fill="#B92932"/>
<path d="M0.258 1.53933L5.83333 6H7.5L0.877333 0.702C0.619333 0.937333 0.408 1.21933 0.258 1.53933Z" fill="#B92932"/>
<path d="M2.66667 16H2.734L19.9553 2.22267C19.7433 0.962 18.654 0 17.3333 0H17.266L0.0446667 13.7773C0.256667 15.038 1.346 16 2.66667 16Z" fill="white"/>
<path d="M12 0H8V16H12V0Z" fill="white"/>
<path d="M20 6H0V10H20V6Z" fill="white"/>
<path d="M11.3333 0H8.66667V16H11.3333V0Z" fill="#B92932"/>
<path d="M20 9.33333V6.66667H0V9.33333H20Z" fill="#B92932"/>
<path d="M18.148 0.14L12 5.05733V6H12.5L19.1287 0.706667C18.8493 0.450667 18.5167 0.259333 18.148 0.14Z" fill="#B92932"/>
<path d="M0.885333 15.3047C1.16133 15.554 1.488 15.742 1.85 15.8593L8 10.9393V10.0007H7.5L0.885333 15.3047Z" fill="#B92932"/>
<path d="M17.3333 0H2.66667C1.19391 0 0 1.19391 0 2.66667V13.3333C0 14.8061 1.19391 16 2.66667 16H17.3333C18.8061 16 20 14.8061 20 13.3333V2.66667C20 1.19391 18.8061 0 17.3333 0ZM19.3333 13.3333C19.3333 14.436 18.436 15.3333 17.3333 15.3333H2.66667C1.564 15.3333 0.666667 14.436 0.666667 13.3333V2.66667C0.666667 1.564 1.564 0.666667 2.66667 0.666667H17.3333C18.436 0.666667 19.3333 1.564 19.3333 2.66667V13.3333Z" fill="black" fill-opacity="0.15"/>
<path d="M17.3333 0.666667H2.66667C1.562 0.666667 0.666667 1.562 0.666667 2.66667V3.33333C0.666667 2.22867 1.562 1.33333 2.66667 1.33333H17.3333C18.438 1.33333 19.3333 2.22867 19.3333 3.33333V2.66667C19.3333 1.562 18.438 0.666667 17.3333 0.666667Z" fill="white" fill-opacity="0.2"/>
</svg>
