<svg width="30" height="24" viewBox="0 0 30 24" fill="none" xmlns="http://www.w3.org/2000/svg">
<path d="M26 0H4C1.79086 0 0 1.79086 0 4V20C0 22.2091 1.79086 24 4 24H26C28.2091 24 30 22.2091 30 20V4C30 1.79086 28.2091 0 26 0Z" fill="#071B65"/>
<path d="M4.101 0H4C2.019 0 0.385 1.444 0.067 3.334L25.899 24H26C27.981 24 29.615 22.556 29.933 20.666L4.101 0Z" fill="white"/>
<path d="M21.25 15H18.75L28.684 22.947C29.071 22.594 29.388 22.17 29.613 21.69L21.25 15Z" fill="#B92932"/>
<path d="M0.387 2.309L8.75 9H11.25L1.316 1.053C0.929 1.406 0.612 1.829 0.387 2.309Z" fill="#B92932"/>
<path d="M4 24H4.101L29.933 3.334C29.615 1.443 27.981 0 26 0H25.899L0.067 20.666C0.385 22.557 2.019 24 4 24Z" fill="white"/>
<path d="M18 0H12V24H18V0Z" fill="white"/>
<path d="M30 9H0V15H30V9Z" fill="white"/>
<path d="M17 0H13V24H17V0Z" fill="#B92932"/>
<path d="M30 14V10H0V14H30Z" fill="#B92932"/>
<path d="M27.222 0.21L18 7.586V9H18.75L28.693 1.06C28.274 0.676 27.775 0.389 27.222 0.21Z" fill="#B92932"/>
<path d="M1.328 22.957C1.742 23.331 2.232 23.613 2.775 23.789L12 16.409V15.001H11.25L1.328 22.957Z" fill="#B92932"/>
<path d="M26 0H4C1.79086 0 0 1.79086 0 4V20C0 22.2091 1.79086 24 4 24H26C28.2091 24 30 22.2091 30 20V4C30 1.79086 28.2091 0 26 0ZM29 20C29 21.654 27.654 23 26 23H4C2.346 23 1 21.654 1 20V4C1 2.346 2.346 1 4 1H26C27.654 1 29 2.346 29 4V20Z" fill="black" fill-opacity="0.15"/>
<path d="M26 1H4C2.343 1 1 2.343 1 4V5C1 3.343 2.343 2 4 2H26C27.657 2 29 3.343 29 5V4C29 2.343 27.657 1 26 1Z" fill="white" fill-opacity="0.2"/>
</svg>
