<svg width="20" height="16" viewBox="0 0 20 16" fill="none" xmlns="http://www.w3.org/2000/svg">
<path d="M17.3333 0H2.66667C1.19391 0 0 1.19391 0 2.66667V13.3333C0 14.8061 1.19391 16 2.66667 16H17.3333C18.8061 16 20 14.8061 20 13.3333V2.66667C20 1.19391 18.8061 0 17.3333 0Z" fill="white"/>
<path d="M0.425333 1.23067H19.5747C19.1007 0.492 18.2767 0 17.3333 0H2.66667C1.724 0 0.9 0.492 0.425333 1.23067Z" fill="#A62842"/>
<path d="M0.686667 2.46133C0.681333 2.53 0.666667 2.596 0.666667 2.66667V3.69267H20V2.66667C20 2.59667 19.9853 2.53067 19.98 2.46133H0.686667Z" fill="#A62842"/>
<path d="M0.666667 4.92333H20V6.154H0.666667V4.92333Z" fill="#A62842"/>
<path d="M0.666667 7.38467H20V8.61533H0.666667V7.38467Z" fill="#A62842"/>
<path d="M0 9.846H20V11.0767H0V9.846Z" fill="#A62842"/>
<path d="M0 13.3333C0 13.4033 0.0153333 13.4693 0.0206667 13.5387H19.9793C19.9847 13.47 20 13.404 20 13.3333V12.3073H0V13.3333Z" fill="#A62842"/>
<path d="M19.5747 14.7693H0.425333C0.899333 15.508 1.72333 16 2.66667 16H17.3333C18.276 16 19.1 15.508 19.5747 14.7693Z" fill="#A62842"/>
<path d="M2.66667 0H10V8.61533H0V2.66667C0 1.19467 1.19467 0 2.66667 0Z" fill="#102D5E"/>
<path d="M17.3333 0H2.66667C1.19391 0 0 1.19391 0 2.66667V13.3333C0 14.8061 1.19391 16 2.66667 16H17.3333C18.8061 16 20 14.8061 20 13.3333V2.66667C20 1.19391 18.8061 0 17.3333 0ZM19.3333 13.3333C19.3333 14.436 18.436 15.3333 17.3333 15.3333H2.66667C1.564 15.3333 0.666667 14.436 0.666667 13.3333V2.66667C0.666667 1.564 1.564 0.666667 2.66667 0.666667H17.3333C18.436 0.666667 19.3333 1.564 19.3333 2.66667V13.3333Z" fill="black" fill-opacity="0.15"/>
<path d="M17.3333 0.666667H2.66667C1.562 0.666667 0.666667 1.562 0.666667 2.66667V3.33333C0.666667 2.22867 1.562 1.33333 2.66667 1.33333H17.3333C18.438 1.33333 19.3333 2.22867 19.3333 3.33333V2.66667C19.3333 1.562 18.438 0.666667 17.3333 0.666667Z" fill="white" fill-opacity="0.2"/>
<path d="M2.40067 2.30867L2.79533 2.022H2.308L2.15733 1.55867L2.00667 2.022H1.51933L1.91333 2.30867L1.76267 2.772L2.15733 2.486L2.55133 2.772L2.40067 2.30867Z" fill="white"/>
<path d="M4.38667 2.30867L4.78133 2.022H4.294L4.14333 1.55867L3.99267 2.022H3.50533L3.89933 2.30867L3.74867 2.772L4.14333 2.486L4.53733 2.772L4.38667 2.30867Z" fill="white"/>
<path d="M6.37333 2.30867L6.76733 2.022H6.28L6.12933 1.55867L5.97867 2.022H5.49133L5.88533 2.30867L5.73533 2.772L6.12933 2.486L6.52333 2.772L6.37333 2.30867Z" fill="white"/>
<path d="M3.37733 3.522L3.772 3.236H3.28467L3.134 2.772L2.98333 3.236H2.496L2.89 3.522L2.73933 3.986L3.134 3.69933L3.528 3.986L3.37733 3.522Z" fill="white"/>
<path d="M5.364 3.522L5.758 3.236H5.27067L5.12 2.772L4.96933 3.236H4.482L4.876 3.522L4.726 3.986L5.12 3.69933L5.514 3.986L5.364 3.522Z" fill="white"/>
<path d="M7.35 3.522L7.744 3.236H7.25667L7.106 2.772L6.95533 3.236H6.468L6.86267 3.522L6.712 3.986L7.106 3.69933L7.50067 3.986L7.35 3.522Z" fill="white"/>
<path d="M3.37733 5.94933L3.772 5.66267H3.28467L3.134 5.19933L2.98333 5.66267H2.496L2.89 5.94933L2.73933 6.41267L3.134 6.12667L3.528 6.41267L3.37733 5.94933Z" fill="white"/>
<path d="M5.364 5.94933L5.758 5.66267H5.27067L5.12 5.19933L4.96933 5.66267H4.482L4.876 5.94933L4.726 6.41267L5.12 6.12667L5.514 6.41267L5.364 5.94933Z" fill="white"/>
<path d="M7.35 5.94933L7.744 5.66267H7.25667L7.106 5.19933L6.95533 5.66267H6.468L6.86267 5.94933L6.712 6.41267L7.106 6.12667L7.50067 6.41267L7.35 5.94933Z" fill="white"/>
<path d="M8.35933 2.30867L8.75333 2.022H8.266L8.11533 1.55867L7.96467 2.022H7.47733L7.872 2.30867L7.72133 2.772L8.11533 2.486L8.51 2.772L8.35933 2.30867Z" fill="white"/>
<path d="M2.40067 4.736L2.79533 4.44933H2.308L2.15733 3.986L2.00667 4.44933H1.51933L1.91333 4.736L1.76267 5.19933L2.15733 4.91267L2.55133 5.19933L2.40067 4.736Z" fill="white"/>
<path d="M4.38667 4.736L4.78133 4.44933H4.294L4.14333 3.986L3.99267 4.44933H3.50533L3.89933 4.736L3.74867 5.19933L4.14333 4.91267L4.53733 5.19933L4.38667 4.736Z" fill="white"/>
<path d="M6.37333 4.736L6.76733 4.44933H6.28L6.12933 3.986L5.97867 4.44933H5.49133L5.88533 4.736L5.73533 5.19933L6.12933 4.91267L6.52333 5.19933L6.37333 4.736Z" fill="white"/>
<path d="M8.35933 4.736L8.75333 4.44933H8.266L8.11533 3.986L7.96467 4.44933H7.47733L7.872 4.736L7.72133 5.19933L8.11533 4.91267L8.51 5.19933L8.35933 4.736Z" fill="white"/>
<path d="M2.40067 7.16267L2.79533 6.87667H2.308L2.15733 6.41267L2.00667 6.87667H1.51933L1.91333 7.16267L1.76267 7.62667L2.15733 7.34L2.55133 7.62667L2.40067 7.16267Z" fill="white"/>
<path d="M4.38667 7.16267L4.78133 6.87667H4.294L4.14333 6.41267L3.99267 6.87667H3.50533L3.89933 7.16267L3.74867 7.62667L4.14333 7.34L4.53733 7.62667L4.38667 7.16267Z" fill="white"/>
<path d="M6.37333 7.16267L6.76733 6.87667H6.28L6.12933 6.41267L5.97867 6.87667H5.49133L5.88533 7.16267L5.73533 7.62667L6.12933 7.34L6.52333 7.62667L6.37333 7.16267Z" fill="white"/>
<path d="M8.35933 7.16267L8.75333 6.87667H8.266L8.11533 6.41267L7.96467 6.87667H7.47733L7.872 7.16267L7.72133 7.62667L8.11533 7.34L8.51 7.62667L8.35933 7.16267Z" fill="white"/>
</svg>
