<svg width="60" height="60" viewBox="0 0 60 60" fill="none" xmlns="http://www.w3.org/2000/svg">
<path fill-rule="evenodd" clip-rule="evenodd" d="M44.6184 33.436L44.6102 33.4192C44.6102 29.2563 41.2357 25.8818 37.0729 25.8818C36.525 25.8818 35.9911 25.9408 35.4766 26.0523C35.1001 26.1339 34.734 26.2435 34.3806 26.3788C33.8606 24.0285 32.2445 22.0901 30.0956 21.129C30.9747 18.9991 33.0706 17.5 35.5177 17.5C37.0727 17.5 38.4859 18.1054 39.5352 19.0932C39.6215 19.1745 39.7054 19.2584 39.7868 19.3448C40.4738 20.0746 40.9759 20.9804 41.2185 21.9874C41.8273 22.0168 42.3995 22.1853 42.9039 22.462C43.2435 22.6482 43.5525 22.8835 43.8213 23.1582C44.323 23.671 44.6847 24.3215 44.8447 25.0477C44.992 25.0321 45.1413 25.0236 45.2929 25.0236C45.4336 25.0236 45.5728 25.0306 45.71 25.0441C46.9323 25.1644 48.0009 25.8079 48.689 26.7477C49.1983 27.4434 49.4991 28.3015 49.4991 29.2298C49.4991 31.5528 47.6159 33.436 45.2929 33.436L44.6184 33.436Z" fill="white"/>
<path fill-rule="evenodd" clip-rule="evenodd" d="M44.8447 25.0477C44.992 25.0321 45.1413 25.0236 45.2929 25.0236C45.4336 25.0236 45.5728 25.0306 45.71 25.0441C46.9323 25.1644 48.0009 25.8079 48.689 26.7477C49.1983 27.4434 49.4991 28.3015 49.4991 29.2298C49.4991 31.5528 47.6159 33.436 45.2929 33.436L44.6184 33.436L44.6102 33.4192C44.6102 29.2563 41.2357 25.8818 37.0729 25.8818C36.525 25.8818 35.9911 25.9408 35.4766 26.0523L35.4722 17.5009C35.4813 17.5008 35.4903 17.5005 35.4994 17.5003C35.5054 17.5001 35.5115 17.5 35.5177 17.5C37.0727 17.5 38.4859 18.1054 39.5352 19.0932C39.6215 19.1745 39.7054 19.2584 39.7868 19.3448C40.4738 20.0746 40.9759 20.9804 41.2185 21.9874C41.8273 22.0168 42.3995 22.1853 42.9039 22.462C43.2435 22.6482 43.5525 22.8835 43.8213 23.1582C44.323 23.671 44.6847 24.3215 44.8447 25.0477Z" fill="#E6F3FF"/>
<path fill-rule="evenodd" clip-rule="evenodd" d="M30.0956 21.129C29.1574 20.7093 28.1176 20.476 27.0231 20.476C23.4702 20.476 20.4934 22.9348 19.6969 26.2432C17.4043 26.3535 15.5161 28.0004 15.0365 30.1761C14.8472 30.1561 14.6552 30.1452 14.4607 30.1452C11.4753 30.1452 9.05511 32.5653 9.05511 35.5508C9.05511 37.0437 9.66004 38.3954 10.6384 39.3737C11.3852 40.1203 12.3496 40.6494 13.4282 40.8579C13.7624 40.9226 14.1076 40.9564 14.4607 40.9564L26.9282 40.9566V33.3852C24.0566 33.0048 21.8326 30.5469 21.8326 27.5713C21.8326 24.5954 24.0488 22.1373 26.9209 21.7573C27.175 21.7237 27.4343 21.7063 27.6976 21.7063C28.436 21.7063 29.1418 21.8441 29.7925 22.0931C29.8662 21.7602 29.9681 21.438 30.0956 21.129Z" fill="#31BAFD"/>
<path fill-rule="evenodd" clip-rule="evenodd" d="M27.0231 20.476C28.1176 20.476 29.1574 20.7093 30.0956 21.129C29.9681 21.438 29.8662 21.7602 29.7925 22.0931C29.1418 21.8441 28.436 21.7063 27.6976 21.7063C27.4343 21.7063 27.175 21.7237 26.9209 21.7573L26.92 20.4783C26.9354 20.4782 26.9513 20.4776 26.9667 20.4772C26.9854 20.4766 27.0042 20.476 27.0231 20.476Z" fill="#2B9ED8"/>
<path d="M26.9282 40.9566V33.3852C27.1826 33.4189 27.4421 33.4363 27.7057 33.4363L35.4804 33.4362L44.6184 33.436C44.6093 37.5913 41.2383 40.9567 37.081 40.9567L26.9282 40.9566Z" fill="#2B9ED8"/>
<path d="M59.9927 29.4326C59.6859 13.1298 46.3761 0 29.9999 0C13.4314 0 0 13.4314 0 29.9999C0 46.4519 13.2433 59.8085 29.651 59.9954L15.1829 42.6543L13.4282 40.8579C12.3646 40.6523 11.412 40.1349 10.6697 39.4046C10.6592 39.3944 10.6488 39.384 10.6384 39.3737C9.66004 38.3954 9.05511 37.0437 9.05511 35.5508C9.05511 32.5653 11.4753 30.1452 14.4607 30.1452C14.6552 30.1452 14.8472 30.1561 15.0365 30.1761C15.5161 28.0004 17.4043 26.3535 19.6969 26.2432C20.4934 22.9348 23.4702 20.476 27.0231 20.476C28.1176 20.476 29.1574 20.7093 30.0956 21.129C30.9747 18.9991 33.0706 17.5 35.5177 17.5C37.0727 17.5 38.4859 18.1054 39.5352 19.0932C39.6215 19.1745 39.7054 19.2584 39.7868 19.3448C40.4738 20.0746 40.9759 20.9804 41.2185 21.9874C41.8273 22.0168 42.3995 22.1853 42.9039 22.462C43.2435 22.6482 43.5525 22.8835 43.8213 23.1582C44.323 23.671 44.6847 24.3215 44.8447 25.0477C44.992 25.0321 45.1413 25.0236 45.2929 25.0236C45.4336 25.0236 45.5728 25.0306 45.71 25.0441C46.9323 25.1644 48.0009 25.8079 48.689 26.7477L59.9927 29.4326Z" fill="#E2C3AB"/>
<path fill-rule="evenodd" clip-rule="evenodd" d="M27.7057 33.4363C27.4421 33.4363 27.1826 33.4189 26.9282 33.3852L26.9209 21.7573C27.175 21.7237 27.4343 21.7063 27.6976 21.7063C28.436 21.7063 29.1418 21.8441 29.7925 22.0931C29.8662 21.7602 29.9681 21.438 30.0956 21.129C32.2445 22.0901 33.8606 24.0285 34.3806 26.3788C34.734 26.2435 35.1001 26.1339 35.4766 26.0523L35.4804 33.4362L27.7057 33.4363Z" fill="white"/>
<path fill-rule="evenodd" clip-rule="evenodd" d="M26.9282 33.3852C24.0566 33.0048 21.8326 30.5469 21.8326 27.5713C21.8326 24.5954 24.0488 22.1373 26.9209 21.7573L26.9282 33.3852Z" fill="white"/>
<path fill-rule="evenodd" clip-rule="evenodd" d="M35.4804 33.4362L35.4766 26.0523C35.9911 25.9408 36.525 25.8818 37.0729 25.8818C41.2357 25.8818 44.6102 29.2563 44.6102 33.4192L44.6184 33.436L35.4804 33.4362Z" fill="#E6F3FF"/>
<path fill-rule="evenodd" clip-rule="evenodd" d="M49.4991 29.2298C49.4991 28.3015 49.1983 27.4434 48.689 26.7477L59.9927 29.4326C59.9963 29.6241 59.9998 29.8076 59.9998 29.9999C59.9998 46.5684 46.5684 59.9998 29.9999 59.9998C29.923 59.9998 29.8466 59.9985 29.7702 59.9972C29.7305 59.9966 29.6908 59.9959 29.651 59.9954L15.1829 42.6543L13.4282 40.8579C13.7624 40.9226 14.1076 40.9564 14.4607 40.9564L26.9282 40.9566L37.081 40.9567C41.2383 40.9567 44.6093 37.5913 44.6184 33.436L45.2929 33.436C47.6159 33.436 49.4991 31.5528 49.4991 29.2298Z" fill="#C1A996"/>
</svg>
