<svg width="20" height="16" viewBox="0 0 20 16" fill="none" xmlns="http://www.w3.org/2000/svg">
<path d="M17.3333 0H2.66667C1.19391 0 0 1.19391 0 2.66667V13.3333C0 14.8061 1.19391 16 2.66667 16H17.3333C18.8061 16 20 14.8061 20 13.3333V2.66667C20 1.19391 18.8061 0 17.3333 0Z" fill="#112F95"/>
<path d="M17.3333 0H2.66667C1.19391 0 0 1.19391 0 2.66667V13.3333C0 14.8061 1.19391 16 2.66667 16H17.3333C18.8061 16 20 14.8061 20 13.3333V2.66667C20 1.19391 18.8061 0 17.3333 0ZM19.3333 13.3333C19.3333 14.436 18.436 15.3333 17.3333 15.3333H2.66667C1.564 15.3333 0.666667 14.436 0.666667 13.3333V2.66667C0.666667 1.564 1.564 0.666667 2.66667 0.666667H17.3333C18.436 0.666667 19.3333 1.564 19.3333 2.66667V13.3333Z" fill="black" fill-opacity="0.15"/>
<path d="M10 2.778L9.83 3.30067H9.28067L9.72533 3.62333L9.55533 4.146L10 3.82333L10.4447 4.146L10.2747 3.62333L10.7193 3.30067H10.17L10 2.778Z" fill="#F6CD46"/>
<path d="M10.17 12.3767L10 11.854L9.83 12.3767H9.28067L9.72533 12.6993L9.55533 13.222L10 12.8993L10.4447 13.222L10.2747 12.6993L10.7193 12.3767H10.17Z" fill="#F6CD46"/>
<path d="M5.462 8.36133L5.90667 8.684L5.73667 8.16133L6.18133 7.83867H5.632L5.462 7.316L5.292 7.83867H4.74267L5.18733 8.16133L5.01733 8.684L5.462 8.36133Z" fill="#F6CD46"/>
<path d="M7.73067 3.386L7.56133 3.90867H7.01133L7.456 4.23133L7.28667 4.754L7.73067 4.43133L8.17533 4.754L8.006 4.23133L8.45 3.90867H7.90067L7.73067 3.386Z" fill="#F6CD46"/>
<path d="M6.07 5.04667L5.9 5.56933H5.35067L5.79533 5.89267L5.62533 6.41533L6.07 6.092L6.51467 6.41533L6.34467 5.89267L6.78933 5.56933H6.24L6.07 5.04667Z" fill="#F6CD46"/>
<path d="M6.24 10.1073L6.07 9.58467L5.9 10.1073H5.35067L5.79533 10.4307L5.62533 10.9533L6.07 10.63L6.51467 10.9533L6.34467 10.4307L6.78933 10.1073H6.24Z" fill="#F6CD46"/>
<path d="M7.90067 11.7687L7.73067 11.246L7.56133 11.7687H7.01133L7.456 12.0913L7.28667 12.614L7.73067 12.2913L8.17533 12.614L8.006 12.0913L8.45 11.7687H7.90067Z" fill="#F6CD46"/>
<path d="M15.2573 7.83867H14.708L14.538 7.316L14.368 7.83867H13.8187L14.2633 8.16133L14.0933 8.684L14.538 8.36133L14.9827 8.684L14.8127 8.16133L15.2573 7.83867Z" fill="#F6CD46"/>
<path d="M12.2693 3.386L12.0993 3.90867H11.55L11.994 4.23133L11.8247 4.754L12.2693 4.43133L12.7133 4.754L12.544 4.23133L12.9887 3.90867H12.4387L12.2693 3.386Z" fill="#F6CD46"/>
<path d="M13.6553 5.89267L13.4853 6.41533L13.93 6.092L14.3747 6.41533L14.2047 5.89267L14.6493 5.56933H14.1L13.93 5.04667L13.76 5.56933H13.2107L13.6553 5.89267Z" fill="#F6CD46"/>
<path d="M14.1 10.1073L13.93 9.58467L13.76 10.1073H13.2107L13.6553 10.4307L13.4853 10.9533L13.93 10.63L14.3747 10.9533L14.2047 10.4307L14.6493 10.1073H14.1Z" fill="#F6CD46"/>
<path d="M12.4387 11.7687L12.2693 11.246L12.0993 11.7687H11.55L11.994 12.0913L11.8247 12.614L12.2693 12.2913L12.7133 12.614L12.544 12.0913L12.9887 11.7687H12.4387Z" fill="#F6CD46"/>
<path d="M17.3333 0.666667H2.66667C1.562 0.666667 0.666667 1.562 0.666667 2.66667V3.33333C0.666667 2.22867 1.562 1.33333 2.66667 1.33333H17.3333C18.438 1.33333 19.3333 2.22867 19.3333 3.33333V2.66667C19.3333 1.562 18.438 0.666667 17.3333 0.666667Z" fill="white" fill-opacity="0.2"/>
</svg>
