<svg width="60" height="60" viewBox="0 0 60 60" fill="none" xmlns="http://www.w3.org/2000/svg">
<path fill-rule="evenodd" clip-rule="evenodd" d="M29.651 59.9954C29.6908 59.9959 29.7305 59.9966 29.7702 59.9972C29.748 59.9971 29.7258 59.9967 29.7036 59.9963L29.651 59.9954Z" fill="#CFDBE6"/>
<path d="M33.6865 9.00007L32.8233 9H32.0502V12.5459L32.8233 12.5459H33.6865V9.00007Z" fill="#F2D453"/>
<path d="M33.6865 9.00007L32.8233 9V12.5459H33.6865V9.00007Z" fill="#F4A200"/>
<path d="M45.6177 20.6144H41.9753V22.2072H45.6177V20.6144Z" fill="#F4A200"/>
<path d="M38.7298 14.5789L39.8868 15.7052L42.4616 13.198L41.3054 12.0717L39.0737 14.2442L38.7298 14.5789Z" fill="#F4A200"/>
<path d="M23.2747 13.1975L25.8508 15.7054L27.0077 14.5792L24.4316 12.0712L23.2747 13.1975Z" fill="#FFE477"/>
<path fill-rule="evenodd" clip-rule="evenodd" d="M45.3784 29.3329C45.3701 33.0166 42.3002 36 38.5145 36L29.2688 35.9999V17.8458C29.2829 17.8457 29.2969 17.8452 29.311 17.8448C29.3281 17.8443 29.3453 17.8437 29.3625 17.8437C29.7313 17.8437 30.0933 17.872 30.4463 17.9266C31.0473 18.0194 31.6223 18.1882 32.1606 18.4226C32.4044 18.5288 32.6406 18.6483 32.8683 18.7804C34.4687 19.7084 35.6482 21.2526 36.0628 23.0766C36.8243 22.7929 37.6504 22.636 38.5145 22.636C39.0298 22.636 39.5318 22.6913 40.0146 22.7961C43.084 23.4622 45.3784 26.1292 45.3784 29.3179V29.3329ZM14.4703 34.6241C14.7652 34.9065 15.0966 35.153 15.4569 35.3563L14.4703 34.6241Z" fill="#31BAFD"/>
<path d="M38.5145 22.636C37.6504 22.636 36.8243 22.7929 36.0628 23.0766C35.6482 21.2526 34.4687 19.7084 32.8683 18.7804C32.6406 18.6483 32.4044 18.5288 32.1606 18.4226C31.6223 18.1882 31.0473 18.0194 30.4463 17.9266C30.0933 17.872 29.7313 17.8437 29.3625 17.8437C29.3311 17.8437 29.3 17.8455 29.2688 17.8458V35.9999L38.5145 36C42.3002 36 45.3701 33.0166 45.3784 29.3329C45.3784 29.3279 45.3784 29.3229 45.3784 29.3179C45.3784 26.1292 43.084 23.4622 40.0146 22.7961C39.5318 22.6913 39.0298 22.636 38.5145 22.636Z" fill="#E6F3FF"/>
<path fill-rule="evenodd" clip-rule="evenodd" d="M20.1945 22.2072L23 22.2072C22.9075 22.4506 22.7542 22.7006 22.6909 22.9564C22.1701 22.9808 21.6721 23.09 21.2113 23.2701L20.1945 22.2072Z" fill="#B8C9D9"/>
<path fill-rule="evenodd" clip-rule="evenodd" d="M28.3278 15.8643C27.8944 16.201 27.5013 16.5848 27.1568 17.0078L25.8508 15.7054L27.0077 14.5792L28.3278 15.8643Z" fill="#B8C9D9"/>
<path d="M36.7372 44.8403C36.6103 44.8403 36.4836 44.791 36.3866 44.6926C36.1929 44.4956 36.1929 44.1766 36.3866 43.9797L40.1539 40.1478C40.3476 39.9507 40.6612 39.9507 40.8548 40.1478C41.0484 40.3448 41.0485 40.6638 40.8548 40.8607L37.0875 44.6926C36.9908 44.791 36.8642 44.8403 36.7372 44.8403Z" fill="#2B9ED8"/>
<path d="M30.6566 44.8403C30.5297 44.8403 30.403 44.791 30.306 44.6926C30.1123 44.4956 30.1123 44.1766 30.306 43.9797L34.0733 40.1478C34.267 39.9507 34.5806 39.9507 34.7742 40.1478C34.9678 40.3448 34.9679 40.6638 34.7742 40.8607L31.0069 44.6926C30.9102 44.791 30.7836 44.8403 30.6566 44.8403Z" fill="#2B9ED8"/>
<path d="M24.5762 44.8403C24.4493 44.8403 24.3226 44.791 24.2256 44.6926C24.0319 44.4956 24.0319 44.1766 24.2256 43.9797L27.9929 40.1478C28.1866 39.9507 28.5002 39.9507 28.6938 40.1478C28.8874 40.3448 28.8875 40.6638 28.6938 40.8607L24.9265 44.6926C24.8298 44.791 24.7031 44.8403 24.5762 44.8403Z" fill="#2B9ED8"/>
<path d="M18.4956 44.8403C18.3687 44.8403 18.2425 44.791 18.1455 44.6926C17.9518 44.4956 17.9513 44.1766 18.145 43.9797L21.9123 40.1478C22.106 39.9507 22.4196 39.9507 22.6132 40.1478C22.8068 40.3448 22.8069 40.6638 22.6132 40.8607L18.8459 44.6926C18.7492 44.791 18.6225 44.8403 18.4956 44.8403Z" fill="#2B9ED8"/>
<path d="M36.7372 52C36.6103 52 36.4836 51.9507 36.3866 51.8524C36.1929 51.6553 36.1929 51.3363 36.3866 51.1394L40.1539 47.3075C40.3476 47.1105 40.6612 47.1105 40.8548 47.3075C41.0484 47.5045 41.0485 47.8235 40.8548 48.0204L37.0875 51.8524C36.9908 51.9507 36.8642 52 36.7372 52Z" fill="#2B9ED8"/>
<path d="M30.6566 52C30.5297 52 30.403 51.9507 30.306 51.8524C30.1123 51.6553 30.1123 51.3363 30.306 51.1394L34.0733 47.3075C34.267 47.1105 34.5806 47.1105 34.7742 47.3075C34.9678 47.5045 34.9679 47.8235 34.7742 48.0204L31.0069 51.8524C30.9102 51.9507 30.7836 52 30.6566 52Z" fill="#2B9ED8"/>
<path d="M24.5762 52C24.4493 52 24.3226 51.9507 24.2256 51.8524C24.0319 51.6553 24.0319 51.3363 24.2256 51.1394L27.9929 47.3075C28.1866 47.1105 28.5002 47.1105 28.6938 47.3075C28.8874 47.5045 28.8875 47.8235 28.6938 48.0204L24.9265 51.8524C24.8298 51.9507 24.7031 52 24.5762 52Z" fill="#2B9ED8"/>
<path d="M18.4956 52C18.3687 52 18.2425 51.9506 18.1455 51.8522C17.9518 51.6552 17.9513 51.3363 18.145 51.1394L21.3143 47.9158L21.9123 47.3075C22.106 47.1105 22.4196 47.1105 22.6132 47.3075C22.8068 47.5045 22.8069 47.8235 22.6132 48.0204L18.8459 51.8524C18.7492 51.9507 18.6225 52 18.4956 52Z" fill="#2B9ED8"/>
<path fill-rule="evenodd" clip-rule="evenodd" d="M30.4463 17.9266C30.0933 17.872 29.7313 17.8437 29.3625 17.8437C29.3311 17.8437 29.3 17.8455 29.2688 17.8458C28.1526 17.8604 27.101 18.1329 26.1745 18.6071C26.4297 18.0304 26.7613 17.4933 27.1568 17.0078C27.5013 16.5848 27.8944 16.201 28.3278 15.8643L30.4463 17.9266Z" fill="#FFE477"/>
<path fill-rule="evenodd" clip-rule="evenodd" d="M33.6865 9.00007L32.8233 9H32.0502V12.5459L33.9513 14.3965C33.5979 14.3453 33.2363 14.3187 32.8683 14.3187C31.1513 14.3187 29.5731 14.897 28.3278 15.8643L27.0077 14.5792L24.4316 12.0712L23.2747 13.1975L25.8508 15.7054L27.1568 17.0078C26.7613 17.4933 26.4297 18.0304 26.1745 18.6071C25.224 19.0936 24.4801 19.7909 23.8582 20.6351L23.837 20.6144H20.1944L20.1945 22.2072L21.2113 23.2701C19.8251 23.8119 18.7747 24.9954 18.4469 26.4429C18.2746 26.4252 18.0998 26.4155 17.9226 26.4155C15.2039 26.4155 13 28.561 13 31.2076C13 32.531 13.5509 33.7294 14.4418 34.5966L14.4703 34.6241C14.7652 34.9065 15.0966 35.153 15.4569 35.3563L21.9123 40.1478L18.145 43.9797C17.9513 44.1766 17.9518 44.4956 18.1455 44.6926L21.3143 47.9158L18.145 51.1394C17.9513 51.3363 17.9518 51.6552 18.1455 51.8522C18.2425 51.9506 18.3687 52 18.4956 52L24.9265 59.5703C10.7742 57.1601 0 44.8392 0 29.9999C0 13.4314 13.4314 0 29.9999 0C46.3761 0 59.6859 13.1298 59.9927 29.4326C59.9963 29.6241 59.9998 29.8076 59.9998 29.9999L42.4616 13.198L41.3054 12.0717L39.0737 14.2442L33.6865 9.00007Z" fill="#CFDBE6"/>
<path fill-rule="evenodd" clip-rule="evenodd" d="M29.7702 59.9972C29.7305 59.9966 29.6908 59.9959 29.651 59.9954C28.0426 59.9771 26.4646 59.8322 24.9265 59.5703L18.4956 52C18.6225 52 18.7492 51.9507 18.8459 51.8524L22.6132 48.0204C22.8069 47.8235 22.8068 47.5045 22.6132 47.3075C22.4196 47.1105 22.106 47.1105 21.9123 47.3075L21.3143 47.9158L18.1455 44.6926C18.2425 44.791 18.3687 44.8403 18.4956 44.8403C18.6225 44.8403 18.7492 44.791 18.8459 44.6926L22.6132 40.8607C22.8069 40.6638 22.8068 40.3448 22.6132 40.1478C22.4196 39.9507 22.106 39.9507 21.9123 40.1478L15.4569 35.3563C16.182 35.7655 17.0242 35.9997 17.9226 35.9997L29.2688 35.9999L38.5145 36C42.3002 36 45.3701 33.0166 45.3784 29.3329L58.24 40.1478C54.0802 51.7223 43.0067 59.9998 29.9999 59.9998C29.9571 59.9998 29.9145 59.9994 29.8719 59.9988L29.7702 59.9972ZM36.7372 44.8403C36.6103 44.8403 36.4836 44.791 36.3866 44.6926C36.1929 44.4956 36.1929 44.1766 36.3866 43.9797L40.1539 40.1478C40.3476 39.9507 40.6612 39.9507 40.8548 40.1478C41.0484 40.3448 41.0485 40.6638 40.8548 40.8607L37.0875 44.6926C36.9908 44.791 36.8642 44.8403 36.7372 44.8403ZM30.6566 44.8403C30.5297 44.8403 30.403 44.791 30.306 44.6926C30.1123 44.4956 30.1123 44.1766 30.306 43.9797L34.0733 40.1478C34.267 39.9507 34.5806 39.9507 34.7742 40.1478C34.9678 40.3448 34.9679 40.6638 34.7742 40.8607L31.0069 44.6926C30.9102 44.791 30.7836 44.8403 30.6566 44.8403ZM24.5762 44.8403C24.4493 44.8403 24.3226 44.791 24.2256 44.6926C24.0319 44.4956 24.0319 44.1766 24.2256 43.9797L27.9929 40.1478C28.1866 39.9507 28.5002 39.9507 28.6938 40.1478C28.8874 40.3448 28.8875 40.6638 28.6938 40.8607L24.9265 44.6926C24.8298 44.791 24.7031 44.8403 24.5762 44.8403ZM36.7372 52C36.6103 52 36.4836 51.9507 36.3866 51.8524C36.1929 51.6553 36.1929 51.3363 36.3866 51.1394L40.1539 47.3075C40.3476 47.1105 40.6612 47.1105 40.8548 47.3075C41.0484 47.5045 41.0485 47.8235 40.8548 48.0204L37.0875 51.8524C36.9908 51.9507 36.8642 52 36.7372 52ZM30.6566 52C30.5297 52 30.403 51.9507 30.306 51.8524C30.1123 51.6553 30.1123 51.3363 30.306 51.1394L34.0733 47.3075C34.267 47.1105 34.5806 47.1105 34.7742 47.3075C34.9678 47.5045 34.9679 47.8235 34.7742 48.0204L31.0069 51.8524C30.9102 51.9507 30.7836 52 30.6566 52ZM24.5762 52C24.4493 52 24.3226 51.9507 24.2256 51.8524C24.0319 51.6553 24.0319 51.3363 24.2256 51.1394L27.9929 47.3075C28.1866 47.1105 28.5002 47.1105 28.6938 47.3075C28.8874 47.5045 28.8875 47.8235 28.6938 48.0204L24.9265 51.8524C24.8298 51.9507 24.7031 52 24.5762 52Z" fill="#B8C9D9"/>
<path d="M26.1745 18.6071C27.1269 18.1196 28.2115 17.8437 29.3625 17.8437C29.3453 17.8437 29.3281 17.8443 29.311 17.8448C29.2969 17.8452 29.2829 17.8457 29.2688 17.8458V35.9999L17.9226 35.9997C17.0242 35.9997 16.182 35.7655 15.4569 35.3563L14.4703 34.6241L14.4418 34.5966C13.5509 33.7294 13 32.531 13 31.2076C13 28.561 15.2039 26.4155 17.9226 26.4155C18.0998 26.4155 18.2746 26.4252 18.4469 26.4429C18.7747 24.9954 19.8251 23.8119 21.2113 23.2701C21.6721 23.09 22.1701 22.9808 22.6909 22.9564C22.7542 22.7006 22.9075 22.4506 23 22.2072C23.2143 21.6434 23.5043 21.1155 23.8582 20.6351C24.4801 19.7909 25.224 19.0936 26.1745 18.6071Z" fill="white"/>
<path fill-rule="evenodd" clip-rule="evenodd" d="M32.0502 12.5459L32.8233 12.5459H33.6865V9.00007L39.0737 14.2442L38.7298 14.5789L39.8868 15.7052L42.4616 13.198L59.9998 29.9999C59.9998 33.5616 59.3791 36.9783 58.24 40.1478L45.3784 29.3329V29.3179C45.3784 26.1292 43.084 23.4622 40.0146 22.7961C40.1058 22.3481 40.1536 21.8848 40.1536 21.4108C40.1536 17.8522 37.4612 14.9057 33.9513 14.3965L32.0502 12.5459ZM45.6177 20.6144H41.9753V22.2072H45.6177V20.6144Z" fill="#B8C9D9"/>
<path fill-rule="evenodd" clip-rule="evenodd" d="M32.1606 18.4226C31.6223 18.1882 31.0473 18.0194 30.4463 17.9266L28.3278 15.8643C29.5731 14.897 31.1513 14.3187 32.8683 14.3187V18.7804C32.6406 18.6483 32.4044 18.5288 32.1606 18.4226Z" fill="#FFE477"/>
<path fill-rule="evenodd" clip-rule="evenodd" d="M36.0628 23.0766C35.6482 21.2526 34.4687 19.7084 32.8683 18.7804V14.3187C33.2363 14.3187 33.5979 14.3453 33.9513 14.3965C37.4612 14.9057 40.1536 17.8522 40.1536 21.4108C40.1536 21.8848 40.1058 22.3481 40.0146 22.7961C39.5318 22.6913 39.0298 22.636 38.5145 22.636C37.6504 22.636 36.8243 22.7929 36.0628 23.0766Z" fill="#FFAC33"/>
<path d="M20.1945 22.2072L23 22.2072C23.2143 21.6434 23.5043 21.1155 23.8582 20.6351L23.837 20.6144H20.1944L20.1945 22.2072Z" fill="#FFE477"/>
</svg>
