<svg width="30" height="24" viewBox="0 0 30 24" fill="none" xmlns="http://www.w3.org/2000/svg">
<path d="M26 0H4C1.79086 0 0 1.79086 0 4V20C0 22.2091 1.79086 24 4 24H26C28.2091 24 30 22.2091 30 20V4C30 1.79086 28.2091 0 26 0Z" fill="white"/>
<path d="M26 0H4C1.79086 0 0 1.79086 0 4V20C0 22.2091 1.79086 24 4 24H26C28.2091 24 30 22.2091 30 20V4C30 1.79086 28.2091 0 26 0ZM29 20C29 21.654 27.654 23 26 23H4C2.346 23 1 21.654 1 20V4C1 2.346 2.346 1 4 1H26C27.654 1 29 2.346 29 4V20Z" fill="black" fill-opacity="0.15"/>
<path d="M5.57154 8.43775L8.08599 4.66606L8.71419 5.08486L6.19973 8.85655L5.57154 8.43775Z" fill="black"/>
<path d="M6.51481 9.06714L9.02926 5.29545L9.65746 5.71425L7.14301 9.48594L6.51481 9.06714Z" fill="black"/>
<path d="M7.4557 9.6952L9.97016 5.92351L10.5984 6.34231L8.0839 10.114L7.4557 9.6952Z" fill="black"/>
<path d="M22.648 16.8714L23.8001 15.1432L24.4283 15.562L23.2762 17.2902L22.648 16.8714Z" fill="black"/>
<path d="M21.2852 18.9148L22.4378 17.1858L23.066 17.6046L21.9134 19.3336L21.2852 18.9148Z" fill="black"/>
<path d="M21.7042 16.2428L22.8563 14.5147L23.4845 14.9335L22.3323 16.6616L21.7042 16.2428Z" fill="black"/>
<path d="M20.3423 18.2863L21.4944 16.5581L22.1226 16.9769L20.9705 18.7051L20.3423 18.2863Z" fill="black"/>
<path d="M20.7622 15.6148L21.9143 13.8867L22.5425 14.3055L21.3904 16.0336L20.7622 15.6148Z" fill="black"/>
<path d="M19.4005 17.6565L20.5527 15.9284L21.1808 16.3472L20.0287 18.0753L19.4005 17.6565Z" fill="black"/>
<path d="M11.229 9.486C12.618 7.403 15.432 6.84 17.515 8.229C19.598 9.618 20.161 12.432 18.772 14.515L11.229 9.486Z" fill="#BE3B3E"/>
<path d="M11.229 9.486C9.84 11.569 10.403 14.383 12.486 15.772C14.569 17.161 17.383 16.598 18.772 14.515C19.466 13.474 19.185 12.066 18.143 11.372C17.101 10.678 15.694 10.959 15 12.001L11.229 9.487V9.486Z" fill="#1C449C"/>
<path d="M13.114 13.009C14.3655 13.009 15.38 11.9945 15.38 10.743C15.38 9.49152 14.3655 8.477 13.114 8.477C11.8625 8.477 10.848 9.49152 10.848 10.743C10.848 11.9945 11.8625 13.009 13.114 13.009Z" fill="#BE3B3E"/>
<path d="M5.57154 15.5622L6.19974 15.1434L8.71419 18.9151L8.08599 19.3339L5.57154 15.5622Z" fill="black"/>
<path d="M7.45826 14.3056L8.08646 13.8868L10.6009 17.6585L9.97271 18.0773L7.45826 14.3056Z" fill="black"/>
<path d="M20.3435 5.71425L20.9717 5.29545L23.4862 9.06714L22.858 9.48593L20.3435 5.71425Z" fill="black"/>
<path d="M6.51415 14.9332L7.14235 14.5144L8.29446 16.2425L7.66626 16.6613L6.51415 14.9332Z" fill="black"/>
<path d="M7.87559 16.9764L8.50378 16.5576L9.65592 18.2857L9.02773 18.7045L7.87559 16.9764Z" fill="black"/>
<path d="M19.4 6.34262L20.0282 5.92382L21.1803 7.65199L20.5521 8.07079L19.4 6.34262Z" fill="black"/>
<path d="M20.7625 8.38545L21.3907 7.96665L22.5428 9.69483L21.9146 10.1136L20.7625 8.38545Z" fill="black"/>
<path d="M21.2852 5.08617L21.9134 4.66738L23.0655 6.39555L22.4373 6.81435L21.2852 5.08617Z" fill="black"/>
<path d="M22.6479 7.12958L23.2761 6.71077L24.4282 8.43892L23.8 8.85773L22.6479 7.12958Z" fill="black"/>
<path d="M26 1H4C2.343 1 1 2.343 1 4V5C1 3.343 2.343 2 4 2H26C27.657 2 29 3.343 29 5V4C29 2.343 27.657 1 26 1Z" fill="white" fill-opacity="0.2"/>
</svg>
