<svg width="30" height="24" viewBox="0 0 30 24" fill="none" xmlns="http://www.w3.org/2000/svg">
<path d="M26 0H4C1.79086 0 0 1.79086 0 4V20C0 22.2091 1.79086 24 4 24H26C28.2091 24 30 22.2091 30 20V4C30 1.79086 28.2091 0 26 0Z" fill="white"/>
<path d="M0.638 1.846H29.362C28.651 0.738 27.415 0 26 0H4C2.586 0 1.35 0.738 0.638 1.846Z" fill="#A62842"/>
<path d="M1.03 3.692C1.022 3.795 1 3.894 1 4V5.539H30V4C30 3.895 29.978 3.796 29.97 3.692H1.03Z" fill="#A62842"/>
<path d="M1 7.385H30V9.231H1V7.385Z" fill="#A62842"/>
<path d="M1 11.077H30V12.923H1V11.077Z" fill="#A62842"/>
<path d="M0 14.769H30V16.615H0V14.769Z" fill="#A62842"/>
<path d="M0 20C0 20.105 0.023 20.204 0.031 20.308H29.969C29.977 20.205 30 20.106 30 20V18.461H0V20Z" fill="#A62842"/>
<path d="M29.362 22.154H0.638C1.349 23.262 2.585 24 4 24H26C27.414 24 28.65 23.262 29.362 22.154Z" fill="#A62842"/>
<path d="M4 0H15V12.923H0V4C0 1.792 1.792 0 4 0Z" fill="#102D5E"/>
<path d="M26 0H4C1.79086 0 0 1.79086 0 4V20C0 22.2091 1.79086 24 4 24H26C28.2091 24 30 22.2091 30 20V4C30 1.79086 28.2091 0 26 0ZM29 20C29 21.654 27.654 23 26 23H4C2.346 23 1 21.654 1 20V4C1 2.346 2.346 1 4 1H26C27.654 1 29 2.346 29 4V20Z" fill="black" fill-opacity="0.15"/>
<path d="M26 1H4C2.343 1 1 2.343 1 4V5C1 3.343 2.343 2 4 2H26C27.657 2 29 3.343 29 5V4C29 2.343 27.657 1 26 1Z" fill="white" fill-opacity="0.2"/>
<path d="M3.601 3.463L4.193 3.033H3.462L3.236 2.338L3.01 3.033H2.279L2.87 3.463L2.644 4.158L3.236 3.729L3.827 4.158L3.601 3.463Z" fill="white"/>
<path d="M6.58 3.463L7.172 3.033H6.441L6.215 2.338L5.989 3.033H5.258L5.849 3.463L5.623 4.158L6.215 3.729L6.806 4.158L6.58 3.463Z" fill="white"/>
<path d="M9.56 3.463L10.151 3.033H9.42L9.194 2.338L8.968 3.033H8.237L8.828 3.463L8.603 4.158L9.194 3.729L9.785 4.158L9.56 3.463Z" fill="white"/>
<path d="M5.066 5.283L5.658 4.854H4.927L4.701 4.158L4.475 4.854H3.744L4.335 5.283L4.109 5.979L4.701 5.549L5.292 5.979L5.066 5.283Z" fill="white"/>
<path d="M8.046 5.283L8.637 4.854H7.906L7.68 4.158L7.454 4.854H6.723L7.314 5.283L7.089 5.979L7.68 5.549L8.271 5.979L8.046 5.283Z" fill="white"/>
<path d="M11.025 5.283L11.616 4.854H10.885L10.659 4.158L10.433 4.854H9.702L10.294 5.283L10.068 5.979L10.659 5.549L11.251 5.979L11.025 5.283Z" fill="white"/>
<path d="M5.066 8.924L5.658 8.494H4.927L4.701 7.799L4.475 8.494H3.744L4.335 8.924L4.109 9.619L4.701 9.19L5.292 9.619L5.066 8.924Z" fill="white"/>
<path d="M8.046 8.924L8.637 8.494H7.906L7.68 7.799L7.454 8.494H6.723L7.314 8.924L7.089 9.619L7.68 9.19L8.271 9.619L8.046 8.924Z" fill="white"/>
<path d="M11.025 8.924L11.616 8.494H10.885L10.659 7.799L10.433 8.494H9.702L10.294 8.924L10.068 9.619L10.659 9.19L11.251 9.619L11.025 8.924Z" fill="white"/>
<path d="M12.539 3.463L13.13 3.033H12.399L12.173 2.338L11.947 3.033H11.216L11.808 3.463L11.582 4.158L12.173 3.729L12.765 4.158L12.539 3.463Z" fill="white"/>
<path d="M3.601 7.104L4.193 6.674H3.462L3.236 5.979L3.01 6.674H2.279L2.87 7.104L2.644 7.799L3.236 7.369L3.827 7.799L3.601 7.104Z" fill="white"/>
<path d="M6.58 7.104L7.172 6.674H6.441L6.215 5.979L5.989 6.674H5.258L5.849 7.104L5.623 7.799L6.215 7.369L6.806 7.799L6.58 7.104Z" fill="white"/>
<path d="M9.56 7.104L10.151 6.674H9.42L9.194 5.979L8.968 6.674H8.237L8.828 7.104L8.603 7.799L9.194 7.369L9.785 7.799L9.56 7.104Z" fill="white"/>
<path d="M12.539 7.104L13.13 6.674H12.399L12.173 5.979L11.947 6.674H11.216L11.808 7.104L11.582 7.799L12.173 7.369L12.765 7.799L12.539 7.104Z" fill="white"/>
<path d="M3.601 10.744L4.193 10.315H3.462L3.236 9.619L3.01 10.315H2.279L2.87 10.744L2.644 11.44L3.236 11.01L3.827 11.44L3.601 10.744Z" fill="white"/>
<path d="M6.58 10.744L7.172 10.315H6.441L6.215 9.619L5.989 10.315H5.258L5.849 10.744L5.623 11.44L6.215 11.01L6.806 11.44L6.58 10.744Z" fill="white"/>
<path d="M9.56 10.744L10.151 10.315H9.42L9.194 9.619L8.968 10.315H8.237L8.828 10.744L8.603 11.44L9.194 11.01L9.785 11.44L9.56 10.744Z" fill="white"/>
<path d="M12.539 10.744L13.13 10.315H12.399L12.173 9.619L11.947 10.315H11.216L11.808 10.744L11.582 11.44L12.173 11.01L12.765 11.44L12.539 10.744Z" fill="white"/>
</svg>
